%TF.GenerationSoftware,Altium Limited,Altium Designer,24.2.2 (26)*%
G04 Layer_Color=16711935*
%FSLAX45Y45*%
%MOMM*%
%TF.SameCoordinates,A4C595DC-B1F2-44DB-B2EC-003EFFDD1F8B*%
%TF.FilePolarity,Negative*%
%TF.FileFunction,Soldermask,Bot*%
%TF.Part,Single*%
G01*
G75*
%TA.AperFunction,ComponentPad*%
%ADD43C,1.10000*%
%ADD44R,1.10000X1.10000*%
%ADD45C,1.57500*%
%ADD46R,1.57500X1.57500*%
%ADD47C,1.65000*%
%ADD48R,1.65000X1.65000*%
%ADD49R,1.50800X1.50800*%
%ADD50C,1.50800*%
%ADD51C,1.45000*%
%ADD52R,1.45000X1.45000*%
%TA.AperFunction,ViaPad*%
%ADD55C,5.08000*%
%TA.AperFunction,ComponentPad*%
%ADD56R,1.57500X1.57500*%
%ADD57R,1.45000X1.45000*%
%ADD58R,1.65000X1.65000*%
%ADD81O,1.22700X1.92700*%
%ADD82O,1.22700X2.32700*%
D43*
X7366000Y11366500D02*
D03*
Y11493500D02*
D03*
X7493000Y11366500D02*
D03*
Y11493500D02*
D03*
X7620000Y11366500D02*
D03*
Y11493500D02*
D03*
X7747000Y11366500D02*
D03*
Y11493500D02*
D03*
X7874000Y11366500D02*
D03*
D44*
Y11493500D02*
D03*
D45*
X14108000Y8824500D02*
D03*
Y9650000D02*
D03*
Y7999000D02*
D03*
X13781500Y10679000D02*
D03*
X14031500Y11419000D02*
D03*
X11305000Y10679000D02*
D03*
X14848000Y9400000D02*
D03*
Y8574500D02*
D03*
Y7749000D02*
D03*
X14108000Y7173500D02*
D03*
X14848000Y6923500D02*
D03*
X11555000Y11419000D02*
D03*
X12130500Y10679000D02*
D03*
X12380500Y11419000D02*
D03*
X12956000Y10679000D02*
D03*
X13206000Y11419000D02*
D03*
D46*
X14108000Y8574500D02*
D03*
Y9400000D02*
D03*
Y7749000D02*
D03*
X14848000Y9650000D02*
D03*
Y8824500D02*
D03*
Y7999000D02*
D03*
X14108000Y6923500D02*
D03*
X14848000Y7173500D02*
D03*
D47*
X10287000Y5080000D02*
D03*
X13589000D02*
D03*
X8636000D02*
D03*
X11938000D02*
D03*
X6667500Y5778500D02*
D03*
D48*
X9779000Y5080000D02*
D03*
X13081000D02*
D03*
X8128000D02*
D03*
X11430000D02*
D03*
D49*
X10156000Y7313500D02*
D03*
D50*
X9906000D02*
D03*
X9656000D02*
D03*
D51*
X8130540Y9512300D02*
D03*
X6301740Y7015480D02*
D03*
X9715500Y11493500D02*
D03*
X9969500D02*
D03*
X10223500D02*
D03*
X10477500D02*
D03*
X6736080Y7366000D02*
D03*
X6662420Y8592820D02*
D03*
X7081520D02*
D03*
D52*
X8130540Y9258300D02*
D03*
D55*
X14859000Y4826000D02*
D03*
Y11430000D02*
D03*
X6477000Y4826000D02*
D03*
Y11430000D02*
D03*
D56*
X14031500Y10679000D02*
D03*
X13781500Y11419000D02*
D03*
X11555000Y10679000D02*
D03*
X11305000Y11419000D02*
D03*
X12380500Y10679000D02*
D03*
X12130500Y11419000D02*
D03*
X13206000Y10679000D02*
D03*
X12956000Y11419000D02*
D03*
D57*
X10731500Y11493500D02*
D03*
D58*
X6667500Y6286500D02*
D03*
D81*
X6628500Y10440000D02*
D03*
Y9880000D02*
D03*
D82*
X6413500Y10160000D02*
D03*
%TF.MD5,02a49536d90d08ecf753b7d966b53375*%
M02*
