%TF.GenerationSoftware,Altium Limited,Altium Designer,24.2.2 (26)*%
G04 Layer_Color=65535*
%FSLAX45Y45*%
%MOMM*%
%TF.SameCoordinates,A4C595DC-B1F2-44DB-B2EC-003EFFDD1F8B*%
%TF.FilePolarity,Positive*%
%TF.FileFunction,Legend,Top*%
%TF.Part,Single*%
G01*
G75*
%TA.AperFunction,NonConductor*%
%ADD71C,0.25000*%
%ADD72C,0.20000*%
%ADD73C,0.50000*%
%ADD74C,0.12700*%
%ADD75C,0.60000*%
%ADD76C,0.15240*%
%ADD77C,0.15000*%
%ADD78C,0.00000*%
%ADD79C,0.20320*%
%ADD80C,0.07620*%
G36*
X12543051Y7974378D02*
X12572290D01*
Y7971454D01*
X12592757D01*
Y7968530D01*
X12610300D01*
Y7965606D01*
X12624920D01*
Y7962682D01*
X12636615D01*
Y7959759D01*
X12648310D01*
Y7956835D01*
X12660006D01*
Y7953911D01*
X12668778D01*
Y7950987D01*
X12677549D01*
Y7948063D01*
X12686321D01*
Y7945139D01*
X12695093D01*
Y7942215D01*
X12703864D01*
Y7939291D01*
X12709712D01*
Y7936367D01*
X12718484D01*
Y7933444D01*
X12724331D01*
Y7930520D01*
X12733103D01*
Y7927596D01*
X12738951D01*
Y7924672D01*
X12744798D01*
Y7921748D01*
X12750646D01*
Y7918824D01*
X12756494D01*
Y7915900D01*
X12762342D01*
Y7912977D01*
X12768190D01*
Y7910053D01*
X12774037D01*
Y7907129D01*
X12779885D01*
Y7904205D01*
X12785733D01*
Y7901281D01*
X12791581D01*
Y7898357D01*
X12794505D01*
Y7895433D01*
X12800352D01*
Y7892509D01*
X12806200D01*
Y7889585D01*
X12809125D01*
Y7886662D01*
X12814972D01*
Y7883738D01*
X12817896D01*
Y7880814D01*
X12823743D01*
Y7877890D01*
X12826666D01*
Y7874966D01*
X12832515D01*
Y7872042D01*
X12835439D01*
Y7869118D01*
X12841287D01*
Y7866194D01*
X12844211D01*
Y7863271D01*
X12847134D01*
Y7860347D01*
X12852982D01*
Y7857423D01*
X12855907D01*
Y7854499D01*
X12858830D01*
Y7851575D01*
X12864677D01*
Y7848651D01*
X12867603D01*
Y7845727D01*
X12870525D01*
Y7842803D01*
X12873450D01*
Y7839879D01*
X12876373D01*
Y7836956D01*
X12882220D01*
Y7834032D01*
X12885146D01*
Y7831108D01*
X12888069D01*
Y7828184D01*
X12890993D01*
Y7825260D01*
X12893916D01*
Y7822336D01*
X12896840D01*
Y7819412D01*
X12899763D01*
Y7816489D01*
X12902689D01*
Y7813565D01*
X12905612D01*
Y7810641D01*
X12908536D01*
Y7807717D01*
X12911459D01*
Y7804793D01*
X12914384D01*
Y7801869D01*
X12917307D01*
Y7798945D01*
X12920232D01*
Y7796021D01*
X12923155D01*
Y7793097D01*
X12926079D01*
Y7790174D01*
X12929002D01*
Y7787250D01*
X12931927D01*
Y7784326D01*
X12934851D01*
Y7781402D01*
X12937775D01*
Y7778478D01*
X12940698D01*
Y7772630D01*
X12943622D01*
Y7769706D01*
X12946545D01*
Y7766783D01*
X12949471D01*
Y7763859D01*
X12952394D01*
Y7760935D01*
X12955318D01*
Y7755087D01*
X12958241D01*
Y7752163D01*
X12961166D01*
Y7749239D01*
X12964090D01*
Y7743391D01*
X12967014D01*
Y7740468D01*
X12969937D01*
Y7737544D01*
X12972861D01*
Y7731696D01*
X12975784D01*
Y7728772D01*
X12978709D01*
Y7722924D01*
X12981633D01*
Y7720001D01*
X12984557D01*
Y7714153D01*
X12987482D01*
Y7711229D01*
X12990405D01*
Y7705381D01*
X12993327D01*
Y7702457D01*
X12996252D01*
Y7696609D01*
X12999176D01*
Y7690762D01*
X13002100D01*
Y7687838D01*
X13005025D01*
Y7681990D01*
X13007948D01*
Y7676142D01*
X13010872D01*
Y7670295D01*
X13013795D01*
Y7664447D01*
X13016719D01*
Y7658599D01*
X13019643D01*
Y7652751D01*
X13022568D01*
Y7646903D01*
X13025491D01*
Y7641056D01*
X13028415D01*
Y7635208D01*
X13031339D01*
Y7629360D01*
X13034264D01*
Y7620589D01*
X13037187D01*
Y7614741D01*
X13040109D01*
Y7605969D01*
X13043034D01*
Y7600121D01*
X13045958D01*
Y7591350D01*
X13048882D01*
Y7582578D01*
X13051807D01*
Y7573807D01*
X13054730D01*
Y7565035D01*
X13057654D01*
Y7556263D01*
X13060577D01*
Y7544568D01*
X13063501D01*
Y7532872D01*
X13066425D01*
Y7521177D01*
X13069350D01*
Y7506557D01*
X13072273D01*
Y7489014D01*
X13075197D01*
Y7468547D01*
X13078120D01*
Y7325277D01*
X13075197D01*
Y7304810D01*
X13072273D01*
Y7287266D01*
X13069350D01*
Y7272647D01*
X13066425D01*
Y7260951D01*
X13063501D01*
Y7249256D01*
X13060577D01*
Y7237560D01*
X13057654D01*
Y7228789D01*
X13054730D01*
Y7220017D01*
X13051807D01*
Y7211245D01*
X13048882D01*
Y7202474D01*
X13045958D01*
Y7193702D01*
X13043034D01*
Y7187855D01*
X13040109D01*
Y7179083D01*
X13037187D01*
Y7173235D01*
X13034264D01*
Y7164463D01*
X13031339D01*
Y7158616D01*
X13028415D01*
Y7152768D01*
X13025491D01*
Y7146920D01*
X13022568D01*
Y7141072D01*
X13019643D01*
Y7135225D01*
X13016719D01*
Y7129377D01*
X13013795D01*
Y7123529D01*
X13010872D01*
Y7117681D01*
X13007948D01*
Y7111834D01*
X13005025D01*
Y7105986D01*
X13002100D01*
Y7103062D01*
X12999176D01*
Y7097214D01*
X12996252D01*
Y7091366D01*
X12993327D01*
Y7088443D01*
X12990405D01*
Y7082595D01*
X12987482D01*
Y7079671D01*
X12984557D01*
Y7073823D01*
X12981633D01*
Y7070899D01*
X12978709D01*
Y7065051D01*
X12975784D01*
Y7062128D01*
X12972861D01*
Y7056280D01*
X12969937D01*
Y7053356D01*
X12967014D01*
Y7050432D01*
X12964090D01*
Y7044584D01*
X12961166D01*
Y7041661D01*
X12958241D01*
Y7038736D01*
X12955318D01*
Y7032889D01*
X12952394D01*
Y7029965D01*
X12949471D01*
Y7027041D01*
X12946545D01*
Y7024117D01*
X12943622D01*
Y7021193D01*
X12940698D01*
Y7015346D01*
X12937775D01*
Y7012422D01*
X12934851D01*
Y7009498D01*
X12931927D01*
Y7006574D01*
X12929002D01*
Y7003650D01*
X12926079D01*
Y7000726D01*
X12923155D01*
Y6997802D01*
X12920232D01*
Y6994878D01*
X12917307D01*
Y6991955D01*
X12914384D01*
Y6989031D01*
X12911459D01*
Y6986107D01*
X12908536D01*
Y6983183D01*
X12905612D01*
Y6980259D01*
X12902689D01*
Y6977335D01*
X12899763D01*
Y6974411D01*
X12896840D01*
Y6971487D01*
X12893916D01*
Y6968563D01*
X12890993D01*
Y6965640D01*
X12888069D01*
Y6962716D01*
X12885146D01*
Y6959792D01*
X12882220D01*
Y6956868D01*
X12876373D01*
Y6953944D01*
X12873450D01*
Y6951020D01*
X12870525D01*
Y6948096D01*
X12867603D01*
Y6945173D01*
X12864677D01*
Y6942248D01*
X12858830D01*
Y6939325D01*
X12855907D01*
Y6936401D01*
X12852982D01*
Y6933477D01*
X12847134D01*
Y6930553D01*
X12844211D01*
Y6927629D01*
X12841287D01*
Y6924705D01*
X12835439D01*
Y6921781D01*
X12832515D01*
Y6918858D01*
X12826666D01*
Y6915934D01*
X12823743D01*
Y6913010D01*
X12817896D01*
Y6910086D01*
X12814972D01*
Y6907162D01*
X12809125D01*
Y6904238D01*
X12806200D01*
Y6901314D01*
X12800352D01*
Y6898390D01*
X12794505D01*
Y6895467D01*
X12791581D01*
Y6892543D01*
X12785733D01*
Y6889619D01*
X12779885D01*
Y6886695D01*
X12774037D01*
Y6883771D01*
X12768190D01*
Y6880847D01*
X12762342D01*
Y6877923D01*
X12756494D01*
Y6874999D01*
X12750646D01*
Y6872075D01*
X12744798D01*
Y6869152D01*
X12738951D01*
Y6866228D01*
X12733103D01*
Y6863304D01*
X12724331D01*
Y6860380D01*
X12718484D01*
Y6857456D01*
X12709712D01*
Y6854532D01*
X12703864D01*
Y6851608D01*
X12695093D01*
Y6848685D01*
X12686321D01*
Y6845761D01*
X12677549D01*
Y6842837D01*
X12668778D01*
Y6839913D01*
X12660006D01*
Y6836989D01*
X12648310D01*
Y6834065D01*
X12636615D01*
Y6831141D01*
X12624920D01*
Y6828217D01*
X12610300D01*
Y6825293D01*
X12592757D01*
Y6822370D01*
X12572290D01*
Y6819446D01*
X12543051D01*
Y6816522D01*
X12458259D01*
Y6819446D01*
X12429020D01*
Y6822370D01*
X12408553D01*
Y6825293D01*
X12391009D01*
Y6828217D01*
X12376390D01*
Y6831141D01*
X12364694D01*
Y6834065D01*
X12352999D01*
Y6836989D01*
X12341303D01*
Y6839913D01*
X12332532D01*
Y6842837D01*
X12323760D01*
Y6845761D01*
X12314988D01*
Y6848685D01*
X12306217D01*
Y6851608D01*
X12297445D01*
Y6854532D01*
X12291597D01*
Y6857456D01*
X12282826D01*
Y6860380D01*
X12276978D01*
Y6863304D01*
X12268206D01*
Y6866228D01*
X12262359D01*
Y6869152D01*
X12256511D01*
Y6872075D01*
X12250663D01*
Y6874999D01*
X12244815D01*
Y6877923D01*
X12238968D01*
Y6880847D01*
X12233120D01*
Y6883771D01*
X12227272D01*
Y6886695D01*
X12221424D01*
Y6889619D01*
X12215577D01*
Y6892543D01*
X12209729D01*
Y6895467D01*
X12206805D01*
Y6898390D01*
X12200957D01*
Y6901314D01*
X12195109D01*
Y6904238D01*
X12192185D01*
Y6907162D01*
X12186338D01*
Y6910086D01*
X12183414D01*
Y6913010D01*
X12177566D01*
Y6915934D01*
X12174642D01*
Y6918858D01*
X12168794D01*
Y6921781D01*
X12165871D01*
Y6924705D01*
X12160023D01*
Y6927629D01*
X12157099D01*
Y6930553D01*
X12154175D01*
Y6933477D01*
X12148327D01*
Y6936401D01*
X12145403D01*
Y6939325D01*
X12142479D01*
Y6942248D01*
X12136632D01*
Y6945173D01*
X12133708D01*
Y6948096D01*
X12130784D01*
Y6951020D01*
X12127860D01*
Y6953944D01*
X12124936D01*
Y6956868D01*
X12119089D01*
Y6959792D01*
X12116164D01*
Y6962716D01*
X12113241D01*
Y6965640D01*
X12110317D01*
Y6968563D01*
X12107393D01*
Y6971487D01*
X12104469D01*
Y6974411D01*
X12101545D01*
Y6977335D01*
X12098621D01*
Y6980259D01*
X12095697D01*
Y6983183D01*
X12092774D01*
Y6986107D01*
X12089850D01*
Y6989031D01*
X12086926D01*
Y6991955D01*
X12084002D01*
Y6994878D01*
X12081078D01*
Y6997802D01*
X12078154D01*
Y7000726D01*
X12075230D01*
Y7003650D01*
X12072306D01*
Y7006574D01*
X12069383D01*
Y7009498D01*
X12066459D01*
Y7012422D01*
X12063535D01*
Y7015346D01*
X12060611D01*
Y7021193D01*
X12057687D01*
Y7024117D01*
X12054763D01*
Y7027041D01*
X12051839D01*
Y7029965D01*
X12048915D01*
Y7032889D01*
X12045991D01*
Y7038736D01*
X12043068D01*
Y7041661D01*
X12040144D01*
Y7044584D01*
X12037220D01*
Y7050432D01*
X12034296D01*
Y7053356D01*
X12031372D01*
Y7056280D01*
X12028448D01*
Y7062128D01*
X12025524D01*
Y7065051D01*
X12022601D01*
Y7070899D01*
X12019676D01*
Y7073823D01*
X12016753D01*
Y7079671D01*
X12013829D01*
Y7082595D01*
X12010905D01*
Y7088443D01*
X12007981D01*
Y7091366D01*
X12005057D01*
Y7097214D01*
X12002133D01*
Y7103062D01*
X11999209D01*
Y7105986D01*
X11996286D01*
Y7111834D01*
X11993362D01*
Y7117681D01*
X11990438D01*
Y7123529D01*
X11987514D01*
Y7129377D01*
X11984590D01*
Y7135225D01*
X11981666D01*
Y7141072D01*
X11978742D01*
Y7146920D01*
X11975818D01*
Y7152768D01*
X11972895D01*
Y7158616D01*
X11969971D01*
Y7164463D01*
X11967047D01*
Y7173235D01*
X11964123D01*
Y7179083D01*
X11961199D01*
Y7187855D01*
X11958275D01*
Y7193702D01*
X11955351D01*
Y7202474D01*
X11952427D01*
Y7211245D01*
X11949503D01*
Y7220017D01*
X11946580D01*
Y7228789D01*
X11943656D01*
Y7237560D01*
X11940732D01*
Y7249256D01*
X11937808D01*
Y7260951D01*
X11934884D01*
Y7272647D01*
X11931960D01*
Y7287266D01*
X11929036D01*
Y7304810D01*
X11926113D01*
Y7325277D01*
X11923188D01*
Y7354516D01*
X11920265D01*
Y7439308D01*
X11923188D01*
Y7468547D01*
X11926113D01*
Y7489014D01*
X11929036D01*
Y7506557D01*
X11931960D01*
Y7521177D01*
X11934884D01*
Y7532872D01*
X11937808D01*
Y7544568D01*
X11940732D01*
Y7556263D01*
X11943656D01*
Y7565035D01*
X11946580D01*
Y7573807D01*
X11949503D01*
Y7582578D01*
X11952427D01*
Y7591350D01*
X11955351D01*
Y7600121D01*
X11958275D01*
Y7605969D01*
X11961199D01*
Y7614741D01*
X11964123D01*
Y7620589D01*
X11967047D01*
Y7629360D01*
X11969971D01*
Y7635208D01*
X11972895D01*
Y7641056D01*
X11975818D01*
Y7646903D01*
X11978742D01*
Y7652751D01*
X11981666D01*
Y7658599D01*
X11984590D01*
Y7664447D01*
X11987514D01*
Y7670295D01*
X11990438D01*
Y7676142D01*
X11993362D01*
Y7681990D01*
X11996286D01*
Y7687838D01*
X11999209D01*
Y7690762D01*
X12002133D01*
Y7696609D01*
X12005057D01*
Y7702457D01*
X12007981D01*
Y7705381D01*
X12010905D01*
Y7711229D01*
X12013829D01*
Y7714153D01*
X12016753D01*
Y7720001D01*
X12019676D01*
Y7722924D01*
X12022601D01*
Y7728772D01*
X12025524D01*
Y7731696D01*
X12028448D01*
Y7737544D01*
X12031372D01*
Y7740468D01*
X12034296D01*
Y7743391D01*
X12037220D01*
Y7749239D01*
X12040144D01*
Y7752163D01*
X12043068D01*
Y7755087D01*
X12045991D01*
Y7760935D01*
X12048915D01*
Y7763859D01*
X12051839D01*
Y7766783D01*
X12054763D01*
Y7769706D01*
X12057687D01*
Y7772630D01*
X12060611D01*
Y7778478D01*
X12063535D01*
Y7781402D01*
X12066459D01*
Y7784326D01*
X12069383D01*
Y7787250D01*
X12072306D01*
Y7790174D01*
X12075230D01*
Y7793097D01*
X12078154D01*
Y7796021D01*
X12081078D01*
Y7798945D01*
X12084002D01*
Y7801869D01*
X12086926D01*
Y7804793D01*
X12089850D01*
Y7807717D01*
X12092774D01*
Y7810641D01*
X12095697D01*
Y7813565D01*
X12098621D01*
Y7816489D01*
X12101545D01*
Y7819412D01*
X12104469D01*
Y7822336D01*
X12107393D01*
Y7825260D01*
X12110317D01*
Y7828184D01*
X12113241D01*
Y7831108D01*
X12116164D01*
Y7834032D01*
X12119089D01*
Y7836956D01*
X12124936D01*
Y7839879D01*
X12127860D01*
Y7842803D01*
X12130784D01*
Y7845727D01*
X12133708D01*
Y7848651D01*
X12136632D01*
Y7851575D01*
X12142479D01*
Y7854499D01*
X12145403D01*
Y7857423D01*
X12148327D01*
Y7860347D01*
X12154175D01*
Y7863271D01*
X12157099D01*
Y7866194D01*
X12160023D01*
Y7869118D01*
X12165871D01*
Y7872042D01*
X12168794D01*
Y7874966D01*
X12174642D01*
Y7877890D01*
X12177566D01*
Y7880814D01*
X12183414D01*
Y7883738D01*
X12186338D01*
Y7886662D01*
X12192185D01*
Y7889585D01*
X12195109D01*
Y7892509D01*
X12200957D01*
Y7895433D01*
X12206805D01*
Y7898357D01*
X12209729D01*
Y7901281D01*
X12215577D01*
Y7904205D01*
X12221424D01*
Y7907129D01*
X12227272D01*
Y7910053D01*
X12233120D01*
Y7912977D01*
X12238968D01*
Y7915900D01*
X12244815D01*
Y7918824D01*
X12250663D01*
Y7921748D01*
X12256511D01*
Y7924672D01*
X12262359D01*
Y7927596D01*
X12268206D01*
Y7930520D01*
X12276978D01*
Y7933444D01*
X12282826D01*
Y7936367D01*
X12291597D01*
Y7939291D01*
X12297445D01*
Y7942215D01*
X12306217D01*
Y7945139D01*
X12314988D01*
Y7948063D01*
X12323760D01*
Y7950987D01*
X12332532D01*
Y7953911D01*
X12341303D01*
Y7956835D01*
X12352999D01*
Y7959759D01*
X12364694D01*
Y7962682D01*
X12376390D01*
Y7965606D01*
X12391009D01*
Y7968530D01*
X12408553D01*
Y7971454D01*
X12429020D01*
Y7974378D01*
X12458259D01*
Y7977302D01*
X12543051D01*
Y7974378D01*
D02*
G37*
%LPC*%
G36*
X12206805Y7553339D02*
X12203881D01*
Y7550415D01*
X12145403D01*
Y7547492D01*
X12127860D01*
Y7544568D01*
X12116164D01*
Y7541644D01*
X12110317D01*
Y7538720D01*
X12101545D01*
Y7535796D01*
X12095697D01*
Y7532872D01*
X12089850D01*
Y7529948D01*
X12086926D01*
Y7527024D01*
X12081078D01*
Y7524101D01*
X12075230D01*
Y7521177D01*
X12072306D01*
Y7518253D01*
X12069383D01*
Y7515329D01*
X12063535D01*
Y7512405D01*
X12060611D01*
Y7506557D01*
X12057687D01*
Y7503633D01*
X12054763D01*
Y7500709D01*
X12051839D01*
Y7497786D01*
X12048915D01*
Y7494862D01*
X12045991D01*
Y7491938D01*
X12043068D01*
Y7489014D01*
X12040144D01*
Y7483166D01*
X12037220D01*
Y7480242D01*
X12034296D01*
Y7477319D01*
X12031372D01*
Y7474394D01*
X12034296D01*
Y7471471D01*
X12031372D01*
Y7462699D01*
X12028448D01*
Y7442232D01*
X12025524D01*
Y7415917D01*
X12022601D01*
Y7383754D01*
X12025524D01*
Y7357439D01*
X12028448D01*
Y7348668D01*
X12031372D01*
Y7342820D01*
X12028448D01*
Y7339896D01*
X12031372D01*
Y7328201D01*
X12034296D01*
Y7325277D01*
X12037220D01*
Y7319429D01*
X12040144D01*
Y7316505D01*
X12043068D01*
Y7313581D01*
X12045991D01*
Y7310657D01*
X12048915D01*
Y7307733D01*
X12051839D01*
Y7304810D01*
X12054763D01*
Y7301886D01*
X12057687D01*
Y7298962D01*
X12063535D01*
Y7296038D01*
X12066459D01*
Y7293114D01*
X12072306D01*
Y7290190D01*
X12078154D01*
Y7287266D01*
X12086926D01*
Y7284343D01*
X12092774D01*
Y7281419D01*
X12104469D01*
Y7278495D01*
X12107393D01*
Y7275571D01*
X12133708D01*
Y7272647D01*
X12195109D01*
Y7275571D01*
X12200957D01*
Y7272647D01*
X12203881D01*
Y7275571D01*
X12209729D01*
Y7278495D01*
X12215577D01*
Y7275571D01*
X12218500D01*
Y7278495D01*
X12224348D01*
Y7281419D01*
X12238968D01*
Y7284343D01*
X12244815D01*
Y7287266D01*
X12253587D01*
Y7290190D01*
X12259435D01*
Y7293114D01*
X12271130D01*
Y7296038D01*
X12274054D01*
Y7298962D01*
X12279902D01*
Y7301886D01*
X12285750D01*
Y7304810D01*
X12294521D01*
Y7307733D01*
X12297445D01*
Y7310657D01*
X12303293D01*
Y7313581D01*
X12309141D01*
Y7316505D01*
X12314988D01*
Y7319429D01*
X12320836D01*
Y7322353D01*
X12323760D01*
Y7325277D01*
X12326684D01*
Y7328201D01*
X12332532D01*
Y7331125D01*
X12335456D01*
Y7334048D01*
X12341303D01*
Y7336972D01*
X12344227D01*
Y7339896D01*
X12350075D01*
Y7342820D01*
X12352999D01*
Y7345744D01*
X12358847D01*
Y7348668D01*
X12361771D01*
Y7351592D01*
X12364694D01*
Y7354516D01*
X12367618D01*
Y7357439D01*
X12373466D01*
Y7360363D01*
X12376390D01*
Y7363287D01*
X12379314D01*
Y7366211D01*
X12382238D01*
Y7369135D01*
X12388085D01*
Y7372059D01*
X12391009D01*
Y7374983D01*
X12393933D01*
Y7377907D01*
X12396857D01*
Y7380831D01*
X12399781D01*
Y7383754D01*
X12405629D01*
Y7386678D01*
X12408553D01*
Y7389602D01*
X12411476D01*
Y7392526D01*
X12414400D01*
Y7395450D01*
X12417324D01*
Y7398374D01*
X12420248D01*
Y7401298D01*
X12423172D01*
Y7404221D01*
X12417324D01*
Y7401298D01*
X12411476D01*
Y7398374D01*
X12405629D01*
Y7395450D01*
X12402705D01*
Y7392526D01*
X12399781D01*
Y7389602D01*
X12393933D01*
Y7386678D01*
X12391009D01*
Y7383754D01*
X12385161D01*
Y7380831D01*
X12382238D01*
Y7377907D01*
X12376390D01*
Y7374983D01*
X12370542D01*
Y7372059D01*
X12367618D01*
Y7369135D01*
X12364694D01*
Y7366211D01*
X12358847D01*
Y7363287D01*
X12355923D01*
Y7360363D01*
X12350075D01*
Y7357439D01*
X12344227D01*
Y7354516D01*
X12341303D01*
Y7351592D01*
X12335456D01*
Y7348668D01*
X12332532D01*
Y7345744D01*
X12326684D01*
Y7342820D01*
X12323760D01*
Y7339896D01*
X12317912D01*
Y7336972D01*
X12309141D01*
Y7334048D01*
X12306217D01*
Y7331125D01*
X12300369D01*
Y7328201D01*
X12291597D01*
Y7325277D01*
X12285750D01*
Y7322353D01*
X12282826D01*
Y7319429D01*
X12274054D01*
Y7316505D01*
X12268206D01*
Y7313581D01*
X12256511D01*
Y7310657D01*
X12247739D01*
Y7307733D01*
X12244815D01*
Y7304810D01*
X12241891D01*
Y7307733D01*
X12236044D01*
Y7304810D01*
X12233120D01*
Y7301886D01*
X12230196D01*
Y7304810D01*
X12224348D01*
Y7301886D01*
X12221424D01*
Y7298962D01*
X12200957D01*
Y7296038D01*
X12154175D01*
Y7298962D01*
X12139556D01*
Y7301886D01*
X12130784D01*
Y7304810D01*
X12122012D01*
Y7307733D01*
X12116164D01*
Y7310657D01*
X12113241D01*
Y7313581D01*
X12107393D01*
Y7316505D01*
X12104469D01*
Y7319429D01*
X12101545D01*
Y7322353D01*
X12095697D01*
Y7325277D01*
X12092774D01*
Y7331125D01*
X12089850D01*
Y7334048D01*
X12086926D01*
Y7336972D01*
X12084002D01*
Y7339896D01*
X12081078D01*
Y7345744D01*
X12078154D01*
Y7351592D01*
X12075230D01*
Y7357439D01*
X12072306D01*
Y7363287D01*
X12069383D01*
Y7369135D01*
X12066459D01*
Y7380831D01*
X12063535D01*
Y7430536D01*
X12066459D01*
Y7442232D01*
X12069383D01*
Y7451004D01*
X12072306D01*
Y7456851D01*
X12075230D01*
Y7465623D01*
X12078154D01*
Y7468547D01*
X12081078D01*
Y7474394D01*
X12084002D01*
Y7480242D01*
X12086926D01*
Y7483166D01*
X12089850D01*
Y7486090D01*
X12092774D01*
Y7491938D01*
X12095697D01*
Y7494862D01*
X12098621D01*
Y7497786D01*
X12101545D01*
Y7500709D01*
X12104469D01*
Y7503633D01*
X12107393D01*
Y7506557D01*
X12110317D01*
Y7509481D01*
X12116164D01*
Y7512405D01*
X12119089D01*
Y7515329D01*
X12124936D01*
Y7518253D01*
X12130784D01*
Y7521177D01*
X12139556D01*
Y7524101D01*
X12148327D01*
Y7527024D01*
X12154175D01*
Y7529948D01*
X12157099D01*
Y7527024D01*
X12162947D01*
Y7529948D01*
X12165871D01*
Y7532872D01*
X12168794D01*
Y7529948D01*
X12174642D01*
Y7532872D01*
X12177566D01*
Y7529948D01*
X12180490D01*
Y7532872D01*
X12192185D01*
Y7535796D01*
X12221424D01*
Y7532872D01*
X12227272D01*
Y7529948D01*
X12230196D01*
Y7532872D01*
X12233120D01*
Y7529948D01*
X12238968D01*
Y7532872D01*
X12244815D01*
Y7529948D01*
X12247739D01*
Y7527024D01*
X12250663D01*
Y7529948D01*
X12259435D01*
Y7527024D01*
X12274054D01*
Y7524101D01*
X12276978D01*
Y7521177D01*
X12279902D01*
Y7524101D01*
X12282826D01*
Y7521177D01*
X12285750D01*
Y7518253D01*
X12288673D01*
Y7521177D01*
X12291597D01*
Y7518253D01*
X12294521D01*
Y7515329D01*
X12309141D01*
Y7512405D01*
X12314988D01*
Y7509481D01*
X12320836D01*
Y7506557D01*
X12326684D01*
Y7503633D01*
X12332532D01*
Y7500709D01*
X12341303D01*
Y7497786D01*
X12347151D01*
Y7494862D01*
X12350075D01*
Y7491938D01*
X12355923D01*
Y7489014D01*
X12361771D01*
Y7486090D01*
X12364694D01*
Y7483166D01*
X12370542D01*
Y7480242D01*
X12376390D01*
Y7477319D01*
X12382238D01*
Y7474394D01*
X12385161D01*
Y7471471D01*
X12388085D01*
Y7468547D01*
X12393933D01*
Y7465623D01*
X12399781D01*
Y7462699D01*
X12402705D01*
Y7459775D01*
X12405629D01*
Y7456851D01*
X12411476D01*
Y7453927D01*
X12414400D01*
Y7451004D01*
X12417324D01*
Y7448080D01*
X12420248D01*
Y7445156D01*
X12426096D01*
Y7442232D01*
X12429020D01*
Y7439308D01*
X12431944D01*
Y7436384D01*
X12437791D01*
Y7433460D01*
X12440715D01*
Y7430536D01*
X12443639D01*
Y7427613D01*
X12446563D01*
Y7424689D01*
X12452411D01*
Y7421765D01*
X12455334D01*
Y7418841D01*
X12458259D01*
Y7415917D01*
X12461182D01*
Y7412993D01*
X12464106D01*
Y7410069D01*
X12469954D01*
Y7407145D01*
X12472878D01*
Y7404221D01*
X12475802D01*
Y7401298D01*
X12478726D01*
Y7398374D01*
X12481649D01*
Y7395450D01*
X12487497D01*
Y7392526D01*
X12490421D01*
Y7389602D01*
X12496269D01*
Y7386678D01*
X12499193D01*
Y7383754D01*
X12502117D01*
Y7380831D01*
X12505041D01*
Y7377907D01*
X12510888D01*
Y7374983D01*
X12513812D01*
Y7372059D01*
X12516736D01*
Y7369135D01*
X12522584D01*
Y7366211D01*
X12525508D01*
Y7363287D01*
X12531355D01*
Y7360363D01*
X12534279D01*
Y7357439D01*
X12537203D01*
Y7354516D01*
X12543051D01*
Y7351592D01*
X12545975D01*
Y7348668D01*
X12548899D01*
Y7345744D01*
X12554747D01*
Y7342820D01*
X12560594D01*
Y7339896D01*
X12563518D01*
Y7336972D01*
X12569366D01*
Y7334048D01*
X12575214D01*
Y7331125D01*
X12578137D01*
Y7328201D01*
X12586909D01*
Y7325277D01*
X12589833D01*
Y7322353D01*
X12595681D01*
Y7319429D01*
X12604452D01*
Y7316505D01*
X12610300D01*
Y7313581D01*
X12613224D01*
Y7310657D01*
X12619072D01*
Y7307733D01*
X12621996D01*
Y7310657D01*
X12624920D01*
Y7307733D01*
X12630767D01*
Y7304810D01*
X12636615D01*
Y7301886D01*
X12648310D01*
Y7298962D01*
X12657082D01*
Y7296038D01*
X12668778D01*
Y7293114D01*
X12671702D01*
Y7290190D01*
X12674625D01*
Y7293114D01*
X12680473D01*
Y7290190D01*
X12698017D01*
Y7287266D01*
X12715560D01*
Y7284343D01*
X12730179D01*
Y7281419D01*
X12733103D01*
Y7284343D01*
X12738951D01*
Y7281419D01*
X12741875D01*
Y7284343D01*
X12747723D01*
Y7281419D01*
X12803276D01*
Y7284343D01*
X12850058D01*
Y7287266D01*
X12861754D01*
Y7284343D01*
X12864677D01*
Y7287266D01*
X12879297D01*
Y7290190D01*
X12896840D01*
Y7293114D01*
X12905612D01*
Y7296038D01*
X12917307D01*
Y7298962D01*
X12929002D01*
Y7301886D01*
X12937775D01*
Y7304810D01*
X12943622D01*
Y7307733D01*
X12952394D01*
Y7310657D01*
X12958241D01*
Y7313581D01*
X12961166D01*
Y7316505D01*
X12964090D01*
Y7325277D01*
X12967014D01*
Y7336972D01*
X12969937D01*
Y7369135D01*
X12967014D01*
Y7380831D01*
X12964090D01*
Y7392526D01*
X12961166D01*
Y7395450D01*
X12964090D01*
Y7401298D01*
X12958241D01*
Y7404221D01*
X12955318D01*
Y7407145D01*
X12952394D01*
Y7410069D01*
X12949471D01*
Y7412993D01*
X12946545D01*
Y7415917D01*
X12943622D01*
Y7418841D01*
X12940698D01*
Y7421765D01*
X12937775D01*
Y7424689D01*
X12934851D01*
Y7427613D01*
X12931927D01*
Y7430536D01*
X12929002D01*
Y7433460D01*
X12926079D01*
Y7436384D01*
X12920232D01*
Y7439308D01*
X12917307D01*
Y7442232D01*
X12914384D01*
Y7445156D01*
X12908536D01*
Y7448080D01*
X12905612D01*
Y7451004D01*
X12899763D01*
Y7453927D01*
X12896840D01*
Y7456851D01*
X12890993D01*
Y7459775D01*
X12888069D01*
Y7462699D01*
X12882220D01*
Y7465623D01*
X12876373D01*
Y7468547D01*
X12870525D01*
Y7471471D01*
X12867603D01*
Y7474394D01*
X12861754D01*
Y7477319D01*
X12858830D01*
Y7480242D01*
X12852982D01*
Y7483166D01*
X12841287D01*
Y7486090D01*
X12838364D01*
Y7489014D01*
X12832515D01*
Y7491938D01*
X12823743D01*
Y7494862D01*
X12817896D01*
Y7497786D01*
X12806200D01*
Y7500709D01*
X12800352D01*
Y7503633D01*
X12791581D01*
Y7506557D01*
X12785733D01*
Y7509481D01*
X12782809D01*
Y7506557D01*
X12779885D01*
Y7509481D01*
X12774037D01*
Y7512405D01*
X12768190D01*
Y7515329D01*
X12759418D01*
Y7518253D01*
X12753570D01*
Y7515329D01*
X12750646D01*
Y7518253D01*
X12738951D01*
Y7521177D01*
X12733103D01*
Y7524101D01*
X12715560D01*
Y7527024D01*
X12706788D01*
Y7529948D01*
X12683397D01*
Y7532872D01*
X12662930D01*
Y7535796D01*
X12660006D01*
Y7538720D01*
X12657082D01*
Y7535796D01*
X12648310D01*
Y7538720D01*
X12645387D01*
Y7535796D01*
X12636615D01*
Y7538720D01*
X12528432D01*
Y7535796D01*
X12525508D01*
Y7538720D01*
X12519660D01*
Y7535796D01*
X12516736D01*
Y7532872D01*
X12499193D01*
Y7529948D01*
X12481649D01*
Y7527024D01*
X12472878D01*
Y7524101D01*
X12464106D01*
Y7521177D01*
X12461182D01*
Y7524101D01*
X12458259D01*
Y7521177D01*
X12449487D01*
Y7518253D01*
X12446563D01*
Y7515329D01*
X12437791D01*
Y7512405D01*
X12431944D01*
Y7509481D01*
X12429020D01*
Y7506557D01*
X12434867D01*
Y7503633D01*
X12437791D01*
Y7506557D01*
X12446563D01*
Y7509481D01*
X12455334D01*
Y7512405D01*
X12464106D01*
Y7515329D01*
X12484573D01*
Y7518253D01*
X12493345D01*
Y7521177D01*
X12499193D01*
Y7518253D01*
X12507964D01*
Y7521177D01*
X12516736D01*
Y7524101D01*
X12525508D01*
Y7521177D01*
X12528432D01*
Y7524101D01*
X12621996D01*
Y7521177D01*
X12630767D01*
Y7518253D01*
X12633691D01*
Y7521177D01*
X12639539D01*
Y7518253D01*
X12642463D01*
Y7521177D01*
X12648310D01*
Y7518253D01*
X12657082D01*
Y7515329D01*
X12660006D01*
Y7518253D01*
X12668778D01*
Y7515329D01*
X12674625D01*
Y7512405D01*
X12677549D01*
Y7515329D01*
X12683397D01*
Y7512405D01*
X12692169D01*
Y7509481D01*
X12706788D01*
Y7506557D01*
X12709712D01*
Y7509481D01*
X12712636D01*
Y7506557D01*
X12721408D01*
Y7503633D01*
X12733103D01*
Y7500709D01*
X12738951D01*
Y7497786D01*
X12741875D01*
Y7494862D01*
X12730179D01*
Y7497786D01*
X12703864D01*
Y7500709D01*
X12700940D01*
Y7497786D01*
X12692169D01*
Y7500709D01*
X12689245D01*
Y7497786D01*
X12636615D01*
Y7494862D01*
X12633691D01*
Y7497786D01*
X12627843D01*
Y7494862D01*
X12613224D01*
Y7497786D01*
X12610300D01*
Y7494862D01*
X12607376D01*
Y7489014D01*
X12610300D01*
Y7491938D01*
X12613224D01*
Y7489014D01*
X12668778D01*
Y7486090D01*
X12674625D01*
Y7489014D01*
X12677549D01*
Y7486090D01*
X12712636D01*
Y7483166D01*
X12718484D01*
Y7480242D01*
X12721408D01*
Y7483166D01*
X12724331D01*
Y7480242D01*
X12730179D01*
Y7483166D01*
X12733103D01*
Y7480242D01*
X12738951D01*
Y7477319D01*
X12756494D01*
Y7474394D01*
X12759418D01*
Y7477319D01*
X12765266D01*
Y7474394D01*
X12771113D01*
Y7471471D01*
X12776961D01*
Y7474394D01*
X12779885D01*
Y7471471D01*
X12791581D01*
Y7468547D01*
X12800352D01*
Y7465623D01*
X12814972D01*
Y7462699D01*
X12817896D01*
Y7459775D01*
X12832515D01*
Y7456851D01*
X12841287D01*
Y7453927D01*
X12850058D01*
Y7451004D01*
X12861754D01*
Y7448080D01*
X12864677D01*
Y7445156D01*
X12867603D01*
Y7448080D01*
X12870525D01*
Y7445156D01*
X12873450D01*
Y7442232D01*
X12876373D01*
Y7445156D01*
X12879297D01*
Y7442232D01*
X12882220D01*
Y7439308D01*
X12885146D01*
Y7436384D01*
X12890993D01*
Y7433460D01*
X12893916D01*
Y7430536D01*
X12896840D01*
Y7427613D01*
X12902689D01*
Y7424689D01*
X12905612D01*
Y7421765D01*
X12908536D01*
Y7418841D01*
X12911459D01*
Y7415917D01*
X12914384D01*
Y7412993D01*
X12917307D01*
Y7410069D01*
X12920232D01*
Y7407145D01*
X12923155D01*
Y7404221D01*
X12926079D01*
Y7398374D01*
X12929002D01*
Y7395450D01*
X12931927D01*
Y7392526D01*
X12934851D01*
Y7389602D01*
X12937775D01*
Y7383754D01*
X12940698D01*
Y7380831D01*
X12943622D01*
Y7374983D01*
X12946545D01*
Y7369135D01*
X12949471D01*
Y7354516D01*
X12946545D01*
Y7348668D01*
X12943622D01*
Y7345744D01*
X12940698D01*
Y7342820D01*
X12937775D01*
Y7339896D01*
X12931927D01*
Y7336972D01*
X12926079D01*
Y7334048D01*
X12920232D01*
Y7331125D01*
X12911459D01*
Y7328201D01*
X12899763D01*
Y7325277D01*
X12882220D01*
Y7322353D01*
X12864677D01*
Y7319429D01*
X12861754D01*
Y7322353D01*
X12855907D01*
Y7319429D01*
X12852982D01*
Y7322353D01*
X12847134D01*
Y7319429D01*
X12832515D01*
Y7316505D01*
X12738951D01*
Y7319429D01*
X12721408D01*
Y7322353D01*
X12718484D01*
Y7319429D01*
X12709712D01*
Y7322353D01*
X12706788D01*
Y7319429D01*
X12703864D01*
Y7322353D01*
X12686321D01*
Y7325277D01*
X12677549D01*
Y7328201D01*
X12665854D01*
Y7331125D01*
X12654158D01*
Y7334048D01*
X12651235D01*
Y7331125D01*
X12648310D01*
Y7334048D01*
X12645387D01*
Y7336972D01*
X12642463D01*
Y7334048D01*
X12639539D01*
Y7336972D01*
X12633691D01*
Y7339896D01*
X12624920D01*
Y7342820D01*
X12613224D01*
Y7345744D01*
X12610300D01*
Y7348668D01*
X12601529D01*
Y7351592D01*
X12592757D01*
Y7354516D01*
X12586909D01*
Y7357439D01*
X12578137D01*
Y7360363D01*
X12572290D01*
Y7363287D01*
X12569366D01*
Y7366211D01*
X12560594D01*
Y7369135D01*
X12557670D01*
Y7372059D01*
X12551822D01*
Y7374983D01*
X12545975D01*
Y7377907D01*
X12543051D01*
Y7380831D01*
X12537203D01*
Y7383754D01*
X12531355D01*
Y7386678D01*
X12525508D01*
Y7389602D01*
X12522584D01*
Y7392526D01*
X12513812D01*
Y7395450D01*
X12510888D01*
Y7398374D01*
X12505041D01*
Y7401298D01*
X12502117D01*
Y7404221D01*
X12496269D01*
Y7407145D01*
X12493345D01*
Y7410069D01*
X12487497D01*
Y7412993D01*
X12481649D01*
Y7415917D01*
X12475802D01*
Y7418841D01*
X12472878D01*
Y7421765D01*
X12467030D01*
Y7424689D01*
X12461182D01*
Y7427613D01*
X12458259D01*
Y7430536D01*
X12455334D01*
Y7433460D01*
X12449487D01*
Y7436384D01*
X12443639D01*
Y7439308D01*
X12440715D01*
Y7442232D01*
X12434867D01*
Y7445156D01*
X12429020D01*
Y7448080D01*
X12426096D01*
Y7451004D01*
X12423172D01*
Y7453927D01*
X12420248D01*
Y7456851D01*
X12417324D01*
Y7459775D01*
X12414400D01*
Y7462699D01*
X12408553D01*
Y7465623D01*
X12405629D01*
Y7468547D01*
X12402705D01*
Y7471471D01*
X12399781D01*
Y7474394D01*
X12393933D01*
Y7477319D01*
X12391009D01*
Y7480242D01*
X12385161D01*
Y7483166D01*
X12382238D01*
Y7486090D01*
X12376390D01*
Y7489014D01*
X12370542D01*
Y7491938D01*
X12367618D01*
Y7494862D01*
X12364694D01*
Y7497786D01*
X12358847D01*
Y7500709D01*
X12352999D01*
Y7503633D01*
X12350075D01*
Y7506557D01*
X12341303D01*
Y7509481D01*
X12335456D01*
Y7512405D01*
X12329608D01*
Y7515329D01*
X12326684D01*
Y7518253D01*
X12317912D01*
Y7521177D01*
X12312065D01*
Y7524101D01*
X12303293D01*
Y7527024D01*
X12297445D01*
Y7529948D01*
X12291597D01*
Y7532872D01*
X12282826D01*
Y7535796D01*
X12276978D01*
Y7538720D01*
X12262359D01*
Y7541644D01*
X12259435D01*
Y7544568D01*
X12244815D01*
Y7547492D01*
X12241891D01*
Y7544568D01*
X12236044D01*
Y7547492D01*
X12224348D01*
Y7550415D01*
X12206805D01*
Y7553339D01*
D02*
G37*
%LPD*%
D71*
X9961680Y10017760D02*
G03*
X9961680Y10017760I-12500J0D01*
G01*
X12253400Y8356744D02*
G03*
X12253400Y8356744I-12500J0D01*
G01*
X6519980Y7490460D02*
G03*
X6519980Y7490460I-12500J0D01*
G01*
X11470500Y7118380D02*
G03*
X11470500Y7118380I-12500J0D01*
G01*
X10194000Y8718000D02*
G03*
X10194000Y8718000I-12500J0D01*
G01*
D72*
X6517480Y8788400D02*
G03*
X6517480Y8788400I-4920J0D01*
G01*
X14117999Y8255500D02*
G03*
X14117999Y8255500I-10000J0D01*
G01*
Y9081000D02*
G03*
X14117999Y9081000I-10000J0D01*
G01*
Y7430000D02*
G03*
X14117999Y7430000I-10000J0D01*
G01*
X9603580Y10487660D02*
G03*
X9603580Y10487660I-10000J0D01*
G01*
X14360500Y10679000D02*
G03*
X14360500Y10679000I-10000J0D01*
G01*
X13472501Y11419000D02*
G03*
X13472501Y11419000I-10000J0D01*
G01*
X11884000Y10679000D02*
G03*
X11884000Y10679000I-10000J0D01*
G01*
X14858000Y9969000D02*
G03*
X14858000Y9969000I-10000J0D01*
G01*
Y9143500D02*
G03*
X14858000Y9143500I-10000J0D01*
G01*
Y8318000D02*
G03*
X14858000Y8318000I-10000J0D01*
G01*
X14117999Y6604500D02*
G03*
X14117999Y6604500I-10000J0D01*
G01*
X14858000Y7492500D02*
G03*
X14858000Y7492500I-10000J0D01*
G01*
X10996000Y11419000D02*
G03*
X10996000Y11419000I-10000J0D01*
G01*
X12709500Y10679000D02*
G03*
X12709500Y10679000I-10000J0D01*
G01*
X11821500Y11419000D02*
G03*
X11821500Y11419000I-10000J0D01*
G01*
X13535001Y10679000D02*
G03*
X13535001Y10679000I-10000J0D01*
G01*
X12647000Y11419000D02*
G03*
X12647000Y11419000I-10000J0D01*
G01*
X9540500Y6371000D02*
X9990500D01*
X9440500Y6206000D02*
Y6271000D01*
X9540500Y6371000D01*
X9990500Y6206000D02*
Y6371000D01*
Y5821000D02*
Y5986000D01*
X9440500Y5921000D02*
X9540500Y5821000D01*
X9440500Y5921000D02*
Y5986000D01*
X9540500Y5821000D02*
X9990500D01*
X12188400Y8662028D02*
Y9041773D01*
X13008400D01*
Y8662028D02*
Y9041773D01*
X12188400Y8662028D02*
X13008400D01*
X12842500Y5821000D02*
X13292500D01*
X12742500Y5921000D02*
Y5986000D01*
Y5921000D02*
X12842500Y5821000D01*
X13292500D02*
Y5986000D01*
Y6206000D02*
Y6371000D01*
X12742500Y6271000D02*
X12842500Y6371000D01*
X12742500Y6206000D02*
Y6271000D01*
X12842500Y6371000D02*
X13292500D01*
X6467820Y9506200D02*
X6552820D01*
X6467820Y9696200D02*
X6552820D01*
X7432720Y7297680D02*
Y7747680D01*
X7267720Y7197680D02*
X7332720D01*
X7432720Y7297680D01*
X7267720Y7747680D02*
X7432720D01*
X6882720D02*
X7047720D01*
X6882720Y7297680D02*
X6982720Y7197680D01*
X7047720D01*
X6882720Y7297680D02*
Y7747680D01*
X6817500Y7661050D02*
Y7705950D01*
X6517500Y7661050D02*
Y7705950D01*
X9656000Y8285500D02*
Y8605500D01*
X10156000Y8285500D02*
Y8605500D01*
X9656000Y8285500D02*
X10156000D01*
X9656000Y8605500D02*
X10156000D01*
X7889500Y6371000D02*
X8339500D01*
X7789500Y6206000D02*
Y6271000D01*
X7889500Y6371000D01*
X8339500Y6206000D02*
Y6371000D01*
Y5821000D02*
Y5986000D01*
X7789500Y5921000D02*
X7889500Y5821000D01*
X7789500Y5921000D02*
Y5986000D01*
X7889500Y5821000D02*
X8339500D01*
X11191500Y6371000D02*
X11641500D01*
X11091500Y6206000D02*
Y6271000D01*
X11191500Y6371000D01*
X11641500Y6206000D02*
Y6371000D01*
Y5821000D02*
Y5986000D01*
X11091500Y5921000D02*
X11191500Y5821000D01*
X11091500Y5921000D02*
Y5986000D01*
X11191500Y5821000D02*
X11641500D01*
X7487240Y7297680D02*
Y7747680D01*
X7587240Y7197680D02*
X7652240D01*
X7487240Y7297680D02*
X7587240Y7197680D01*
X7487240Y7747680D02*
X7652240D01*
X7872240D02*
X8037240D01*
X7937240Y7197680D02*
X8037240Y7297680D01*
X7872240Y7197680D02*
X7937240D01*
X8037240Y7297680D02*
Y7747680D01*
D73*
X12288400Y8737027D02*
G03*
X12288400Y8737027I-25000J0D01*
G01*
D74*
X7224840Y10292080D02*
G03*
X7224840Y10292080I-5000J0D01*
G01*
X6516560Y8827460D02*
Y8947460D01*
X6762560Y8827460D02*
Y8947460D01*
X8252500Y11175000D02*
Y11685000D01*
X6987500D02*
X8252500D01*
X6987500Y11175000D02*
Y11685000D01*
Y11175000D02*
X8252500D01*
X7538720Y11661140D02*
X7698740D01*
X13873000Y8329500D02*
X14448000D01*
X13873000D02*
Y9069500D01*
X14448000D01*
Y8329500D02*
Y9069500D01*
X13873000Y9155000D02*
X14448000D01*
X13873000D02*
Y9895000D01*
X14448000D01*
Y9155000D02*
Y9895000D01*
X13873000Y7504000D02*
X14448000D01*
X13873000D02*
Y8244000D01*
X14448000D01*
Y7504000D02*
Y8244000D01*
X9525000Y4770000D02*
X10541000D01*
X9525000D02*
Y5490000D01*
Y4670000D02*
Y4770000D01*
Y4670000D02*
X10541000D01*
Y4770000D01*
Y5490000D01*
X9525000D02*
X10541000D01*
X12827000Y4770000D02*
X13842999D01*
X12827000D02*
Y5490000D01*
Y4670000D02*
Y4770000D01*
Y4670000D02*
X13842999D01*
Y4770000D01*
Y5490000D01*
X12827000D02*
X13842999D01*
X9411000Y7078500D02*
Y7653500D01*
Y7078500D02*
X10401000D01*
Y7653500D01*
X9411000D02*
X10401000D01*
X9264100Y10270260D02*
Y10400260D01*
X9608100Y10270260D02*
Y10400260D01*
X13536501Y11019000D02*
X14276500D01*
X13536501Y10444000D02*
Y11019000D01*
Y10444000D02*
X14276500D01*
Y11019000D01*
X13536501Y11079000D02*
X14276500D01*
Y11654000D01*
X13536501D02*
X14276500D01*
X13536501Y11079000D02*
Y11654000D01*
X11060000Y11019000D02*
X11800000D01*
X11060000Y10444000D02*
Y11019000D01*
Y10444000D02*
X11800000D01*
Y11019000D01*
X8903500Y11640000D02*
X9003500D01*
X8903500Y11220000D02*
X9003500D01*
X9115500D02*
Y11640000D01*
X8791500Y11220000D02*
Y11640000D01*
X8459000D02*
X8559000D01*
X8459000Y11220000D02*
X8559000D01*
X8671000D02*
Y11640000D01*
X8347000Y11220000D02*
Y11640000D01*
X7874000Y5490000D02*
X8890000D01*
Y4770000D02*
Y5490000D01*
Y4670000D02*
Y4770000D01*
X7874000Y4670000D02*
X8890000D01*
X7874000D02*
Y4770000D01*
Y5490000D01*
Y4770000D02*
X8890000D01*
X14508000Y9155000D02*
Y9895000D01*
Y9155000D02*
X15083000D01*
Y9895000D01*
X14508000D02*
X15083000D01*
X14508000Y8329500D02*
Y9069500D01*
Y8329500D02*
X15083000D01*
Y9069500D01*
X14508000D02*
X15083000D01*
X14508000Y7504000D02*
Y8244000D01*
Y7504000D02*
X15083000D01*
Y8244000D01*
X14508000D02*
X15083000D01*
X14448000Y6678500D02*
Y7418500D01*
X13873000D02*
X14448000D01*
X13873000Y6678500D02*
Y7418500D01*
Y6678500D02*
X14448000D01*
X14508000D02*
Y7418500D01*
Y6678500D02*
X15083000D01*
Y7418500D01*
X14508000D02*
X15083000D01*
X11176000Y5490000D02*
X12192000D01*
Y4770000D02*
Y5490000D01*
Y4670000D02*
Y4770000D01*
X11176000Y4670000D02*
X12192000D01*
X11176000D02*
Y4770000D01*
Y5490000D01*
Y4770000D02*
X12192000D01*
X11060000Y11079000D02*
X11800000D01*
Y11654000D01*
X11060000D02*
X11800000D01*
X11060000Y11079000D02*
Y11654000D01*
X11885500Y11019000D02*
X12625500D01*
X11885500Y10444000D02*
Y11019000D01*
Y10444000D02*
X12625500D01*
Y11019000D01*
X11885500Y11079000D02*
X12625500D01*
Y11654000D01*
X11885500D02*
X12625500D01*
X11885500Y11079000D02*
Y11654000D01*
X12711000Y11019000D02*
X13450999D01*
X12711000Y10444000D02*
Y11019000D01*
Y10444000D02*
X13450999D01*
Y11019000D01*
X12711000Y11079000D02*
X13450999D01*
Y11654000D01*
X12711000D02*
X13450999D01*
X12711000Y11079000D02*
Y11654000D01*
X7077500Y5524500D02*
Y6540500D01*
X6357500Y5524500D02*
X7077500D01*
X6257500D02*
X6357500D01*
X6257500D02*
Y6540500D01*
X6357500D01*
X7077500D01*
X6357500Y5524500D02*
Y6540500D01*
D75*
X10086000Y8505500D02*
G03*
X10086000Y8505500I-30000J0D01*
G01*
D76*
X9997440Y5722874D02*
Y5754370D01*
X9687560Y5548630D02*
X9997440D01*
Y5580126D01*
X9687560Y5754370D02*
X9997440D01*
X9687560Y5722874D02*
Y5754370D01*
Y5548630D02*
Y5580126D01*
X13299440Y5722874D02*
Y5754370D01*
X12989560Y5548630D02*
X13299440D01*
Y5580126D01*
X12989560Y5754370D02*
X13299440D01*
X12989560Y5722874D02*
Y5754370D01*
Y5548630D02*
Y5580126D01*
X11338560Y5548630D02*
Y5580126D01*
Y5722874D02*
Y5754370D01*
X11648440D01*
Y5548630D02*
Y5580126D01*
X11338560Y5548630D02*
X11648440D01*
Y5722874D02*
Y5754370D01*
X8036560Y5548630D02*
Y5580126D01*
Y5722874D02*
Y5754370D01*
X8346440D01*
Y5548630D02*
Y5580126D01*
X8036560Y5548630D02*
X8346440D01*
Y5722874D02*
Y5754370D01*
X6408674Y8413570D02*
X6492097D01*
X6842903D02*
X6863334D01*
Y7928430D02*
Y8413570D01*
X6408674Y7928430D02*
X6492097D01*
X6408674D02*
Y8413570D01*
X6842903Y7928430D02*
X6863334D01*
X9396560Y5762920D02*
Y5867400D01*
X9448800Y5815160D02*
X9344320D01*
X12698560Y5762920D02*
Y5867400D01*
X12750800Y5815160D02*
X12646320D01*
X7511120Y7174060D02*
X7406640D01*
X7458880Y7226300D02*
Y7121820D01*
X7745560Y5762920D02*
Y5867400D01*
X7797800Y5815160D02*
X7693320D01*
X11047560Y5762920D02*
Y5867400D01*
X11099800Y5815160D02*
X10995320D01*
X8095320Y7156280D02*
X7990840D01*
X8043080Y7208520D02*
Y7104040D01*
D77*
X6758500Y9745000D02*
Y10575000D01*
X6283500Y9745000D02*
X6758500D01*
X6283500D02*
Y10575000D01*
X6758500D01*
D78*
X6353040Y7166220D02*
X6453040D01*
X6353040D02*
Y7251220D01*
Y7466220D02*
X6453040D01*
X6353040Y7381220D02*
Y7466220D01*
D79*
X11897360Y6792763D02*
Y6708123D01*
X11914288Y6691196D01*
X11948143D01*
X11965071Y6708123D01*
Y6792763D01*
X11998927D02*
X12032783D01*
X12015855D01*
Y6691196D01*
X11998927D01*
X12032783D01*
X12151278Y6775835D02*
X12134350Y6792763D01*
X12100494D01*
X12083567Y6775835D01*
Y6708123D01*
X12100494Y6691196D01*
X12134350D01*
X12151278Y6708123D01*
X12286701Y6792763D02*
Y6691196D01*
Y6741979D01*
X12354412D01*
Y6792763D01*
Y6691196D01*
X12388268Y6758907D02*
Y6708123D01*
X12405196Y6691196D01*
X12455980D01*
Y6674268D01*
X12439052Y6657340D01*
X12422124D01*
X12455980Y6691196D02*
Y6758907D01*
X12489836Y6657340D02*
Y6758907D01*
X12540619D01*
X12557547Y6741979D01*
Y6708123D01*
X12540619Y6691196D01*
X12489836D01*
X12642186D02*
X12608331D01*
X12591403Y6708123D01*
Y6741979D01*
X12608331Y6758907D01*
X12642186D01*
X12659114Y6741979D01*
Y6725051D01*
X12591403D01*
X12692970Y6758907D02*
Y6691196D01*
Y6725051D01*
X12709898Y6741979D01*
X12726826Y6758907D01*
X12743754D01*
X12794537Y6691196D02*
X12828394D01*
X12811465D01*
Y6792763D01*
X12794537D01*
X12896104Y6691196D02*
X12929961D01*
X12946889Y6708123D01*
Y6741979D01*
X12929961Y6758907D01*
X12896104D01*
X12879176Y6741979D01*
Y6708123D01*
X12896104Y6691196D01*
X12997672D02*
X13031528D01*
X13048454Y6708123D01*
Y6741979D01*
X13031528Y6758907D01*
X12997672D01*
X12980743Y6741979D01*
Y6708123D01*
X12997672Y6691196D01*
X13082310Y6657340D02*
Y6758907D01*
X13133095D01*
X13150021Y6741979D01*
Y6708123D01*
X13133095Y6691196D01*
X13082310D01*
X10574020Y6868127D02*
X10641731D01*
X10607876D01*
Y6766560D01*
X10726371D02*
X10692515D01*
X10675587Y6783488D01*
Y6817343D01*
X10692515Y6834271D01*
X10726371D01*
X10743299Y6817343D01*
Y6800416D01*
X10675587D01*
X10777154Y6834271D02*
Y6766560D01*
Y6800416D01*
X10794082Y6817343D01*
X10811010Y6834271D01*
X10827938D01*
X10878722Y6766560D02*
Y6834271D01*
X10895650D01*
X10912577Y6817343D01*
Y6766560D01*
Y6817343D01*
X10929505Y6834271D01*
X10946433Y6817343D01*
Y6766560D01*
X10980289D02*
Y6783488D01*
X10997217D01*
Y6766560D01*
X10980289D01*
X11217279Y6868127D02*
X11183423D01*
X11166496Y6851199D01*
Y6783488D01*
X11183423Y6766560D01*
X11217279D01*
X11234207Y6783488D01*
Y6851199D01*
X11217279Y6868127D01*
X11284991Y6766560D02*
Y6851199D01*
Y6817343D01*
X11268063D01*
X11301918D01*
X11284991D01*
Y6851199D01*
X11301918Y6868127D01*
X11369630Y6766560D02*
Y6851199D01*
Y6817343D01*
X11352702D01*
X11386558D01*
X11369630D01*
Y6851199D01*
X11386558Y6868127D01*
X6189947Y10299700D02*
X6105308D01*
X6088380Y10282772D01*
Y10248917D01*
X6105308Y10231989D01*
X6189947D01*
X6173019Y10130421D02*
X6189947Y10147349D01*
Y10181205D01*
X6173019Y10198133D01*
X6156091D01*
X6139163Y10181205D01*
Y10147349D01*
X6122236Y10130421D01*
X6105308D01*
X6088380Y10147349D01*
Y10181205D01*
X6105308Y10198133D01*
X6189947Y10096566D02*
X6088380D01*
Y10045782D01*
X6105308Y10028854D01*
X6122236D01*
X6139163Y10045782D01*
Y10096566D01*
Y10045782D01*
X6156091Y10028854D01*
X6173019D01*
X6189947Y10045782D01*
Y10096566D01*
X6108700Y11018520D02*
X6210267D01*
Y10967737D01*
X6193339Y10950809D01*
X6159483D01*
X6142556Y10967737D01*
Y11018520D01*
X6210267Y10916953D02*
X6108700D01*
X6142556Y10883097D01*
X6108700Y10849241D01*
X6210267D01*
X6108700Y10815386D02*
X6210267D01*
Y10764602D01*
X6193339Y10747674D01*
X6159483D01*
X6142556Y10764602D01*
Y10815386D01*
Y10781530D02*
X6108700Y10747674D01*
X10600289Y11784781D02*
X10617217Y11767853D01*
X10651072D01*
X10668000Y11784781D01*
Y11852492D01*
X10651072Y11869420D01*
X10617217D01*
X10600289Y11852492D01*
Y11818637D01*
X10634144D01*
X10566433Y11869420D02*
Y11767853D01*
X10498721Y11869420D01*
Y11767853D01*
X10464866D02*
Y11869420D01*
X10414082D01*
X10397154Y11852492D01*
Y11784781D01*
X10414082Y11767853D01*
X10464866D01*
X9990885Y11784781D02*
X10007813Y11767853D01*
X10041669D01*
X10058597Y11784781D01*
Y11801709D01*
X10041669Y11818637D01*
X10007813D01*
X9990885Y11835564D01*
Y11852492D01*
X10007813Y11869420D01*
X10041669D01*
X10058597Y11852492D01*
X9957029Y11767853D02*
Y11869420D01*
X9906246D01*
X9889318Y11852492D01*
Y11784781D01*
X9906246Y11767853D01*
X9957029D01*
X9855462Y11869420D02*
Y11801709D01*
X9821606Y11767853D01*
X9787751Y11801709D01*
Y11869420D01*
Y11818637D01*
X9855462D01*
X10947400Y11676397D02*
X10879689D01*
X10913544Y11642541D02*
Y11710252D01*
X10778121Y11625613D02*
X10845833D01*
Y11676397D01*
X10811977Y11659469D01*
X10795049D01*
X10778121Y11676397D01*
Y11710252D01*
X10795049Y11727180D01*
X10828905D01*
X10845833Y11710252D01*
X10744266Y11625613D02*
Y11693324D01*
X10710410Y11727180D01*
X10676554Y11693324D01*
Y11625613D01*
X10270285Y11642541D02*
X10287213Y11625613D01*
X10321069D01*
X10337997Y11642541D01*
Y11659469D01*
X10321069Y11676397D01*
X10287213D01*
X10270285Y11693324D01*
Y11710252D01*
X10287213Y11727180D01*
X10321069D01*
X10337997Y11710252D01*
X10168718Y11642541D02*
X10185646Y11625613D01*
X10219502D01*
X10236429Y11642541D01*
Y11710252D01*
X10219502Y11727180D01*
X10185646D01*
X10168718Y11710252D01*
X10134862Y11625613D02*
Y11727180D01*
X10067151D01*
X9728593Y11625613D02*
Y11727180D01*
X9677810D01*
X9660882Y11710252D01*
Y11642541D01*
X9677810Y11625613D01*
X9728593D01*
X9627026Y11642541D02*
X9610098Y11625613D01*
X9576242D01*
X9559315Y11642541D01*
Y11659469D01*
X9576242Y11676397D01*
X9593170D01*
X9576242D01*
X9559315Y11693324D01*
Y11710252D01*
X9576242Y11727180D01*
X9610098D01*
X9627026Y11710252D01*
X6736080Y9651967D02*
Y9550400D01*
X12227601Y9006824D02*
Y8922184D01*
X12244529Y8905257D01*
X12278385D01*
X12295312Y8922184D01*
Y9006824D01*
X12329168Y8905257D02*
X12363024D01*
X12346096D01*
Y9006824D01*
X12329168Y8989896D01*
X12413808D02*
X12430736Y9006824D01*
X12464591D01*
X12481519Y8989896D01*
Y8922184D01*
X12464591Y8905257D01*
X12430736D01*
X12413808Y8922184D01*
Y8989896D01*
X9691821Y8572484D02*
Y8487844D01*
X9708749Y8470917D01*
X9742604D01*
X9759532Y8487844D01*
Y8572484D01*
X9793388Y8487844D02*
X9810316Y8470917D01*
X9844172D01*
X9861099Y8487844D01*
Y8555556D01*
X9844172Y8572484D01*
X9810316D01*
X9793388Y8555556D01*
Y8538628D01*
X9810316Y8521700D01*
X9861099D01*
X13771062Y5765784D02*
Y5681144D01*
X13787988Y5664217D01*
X13821844D01*
X13838773Y5681144D01*
Y5765784D01*
X13872627Y5748856D02*
X13889555Y5765784D01*
X13923412D01*
X13940340Y5748856D01*
Y5731928D01*
X13923412Y5715000D01*
X13940340Y5698072D01*
Y5681144D01*
X13923412Y5664217D01*
X13889555D01*
X13872627Y5681144D01*
Y5698072D01*
X13889555Y5715000D01*
X13872627Y5731928D01*
Y5748856D01*
X13889555Y5715000D02*
X13923412D01*
X12120061Y5765784D02*
Y5681144D01*
X12136989Y5664217D01*
X12170844D01*
X12187772Y5681144D01*
Y5765784D01*
X12221628D02*
X12289339D01*
Y5748856D01*
X12221628Y5681144D01*
Y5664217D01*
X10469061Y5765784D02*
Y5681144D01*
X10485989Y5664217D01*
X10519844D01*
X10536772Y5681144D01*
Y5765784D01*
X10638339D02*
X10604484Y5748856D01*
X10570628Y5715000D01*
Y5681144D01*
X10587556Y5664217D01*
X10621412D01*
X10638339Y5681144D01*
Y5698072D01*
X10621412Y5715000D01*
X10570628D01*
X8818061Y5765784D02*
Y5681144D01*
X8834989Y5664217D01*
X8868844D01*
X8885772Y5681144D01*
Y5765784D01*
X8987339D02*
X8919628D01*
Y5715000D01*
X8953484Y5731928D01*
X8970412D01*
X8987339Y5715000D01*
Y5681144D01*
X8970412Y5664217D01*
X8936556D01*
X8919628Y5681144D01*
X6796221Y9037304D02*
Y8952664D01*
X6813149Y8935737D01*
X6847004D01*
X6863932Y8952664D01*
Y9037304D01*
X6897788Y9020376D02*
X6914716Y9037304D01*
X6948572D01*
X6965499Y9020376D01*
Y9003448D01*
X6948572Y8986520D01*
X6931644D01*
X6948572D01*
X6965499Y8969592D01*
Y8952664D01*
X6948572Y8935737D01*
X6914716D01*
X6897788Y8952664D01*
X6270441Y7579344D02*
Y7494704D01*
X6287369Y7477777D01*
X6321224D01*
X6338152Y7494704D01*
Y7579344D01*
X6439719Y7477777D02*
X6372008D01*
X6439719Y7545488D01*
Y7562416D01*
X6422792Y7579344D01*
X6388936D01*
X6372008Y7562416D01*
X6183229Y7228824D02*
Y7144184D01*
X6200157Y7127257D01*
X6234012D01*
X6250940Y7144184D01*
Y7228824D01*
X6284796Y7127257D02*
X6318652D01*
X6301724D01*
Y7228824D01*
X6284796Y7211896D01*
X7159457Y8648684D02*
X7227168D01*
X7193313D01*
Y8547117D01*
X7261024D02*
Y8648684D01*
X7311808D01*
X7328736Y8631756D01*
Y8597900D01*
X7311808Y8580972D01*
X7261024D01*
X7413375Y8547117D02*
Y8648684D01*
X7362592Y8597900D01*
X7430303D01*
X6272997Y8653764D02*
X6340708D01*
X6306853D01*
Y8552197D01*
X6374564D02*
Y8653764D01*
X6425348D01*
X6442276Y8636836D01*
Y8602980D01*
X6425348Y8586052D01*
X6374564D01*
X6476132Y8636836D02*
X6493059Y8653764D01*
X6526915D01*
X6543843Y8636836D01*
Y8619908D01*
X6526915Y8602980D01*
X6509987D01*
X6526915D01*
X6543843Y8586052D01*
Y8569124D01*
X6526915Y8552197D01*
X6493059D01*
X6476132Y8569124D01*
X6613357Y7246604D02*
X6681068D01*
X6647213D01*
Y7145037D01*
X6714924D02*
Y7246604D01*
X6765708D01*
X6782636Y7229676D01*
Y7195820D01*
X6765708Y7178892D01*
X6714924D01*
X6884203Y7145037D02*
X6816492D01*
X6884203Y7212748D01*
Y7229676D01*
X6867275Y7246604D01*
X6833419D01*
X6816492Y7229676D01*
X6129905Y6870684D02*
X6197616D01*
X6163761D01*
Y6769117D01*
X6231472D02*
Y6870684D01*
X6282256D01*
X6299183Y6853756D01*
Y6819900D01*
X6282256Y6802972D01*
X6231472D01*
X6333039Y6769117D02*
X6366895D01*
X6349967D01*
Y6870684D01*
X6333039Y6853756D01*
X9033059Y11752596D02*
Y11854163D01*
X8982276D01*
X8965348Y11837236D01*
Y11769524D01*
X8982276Y11752596D01*
X9033059D01*
X8863781D02*
X8897636Y11769524D01*
X8931492Y11803380D01*
Y11837236D01*
X8914564Y11854163D01*
X8880708D01*
X8863781Y11837236D01*
Y11820308D01*
X8880708Y11803380D01*
X8931492D01*
X8649502Y11851623D02*
Y11750056D01*
X8598719D01*
X8581791Y11766984D01*
Y11800840D01*
X8598719Y11817768D01*
X8649502D01*
X8615647D02*
X8581791Y11851623D01*
X8480224Y11766984D02*
X8497152Y11750056D01*
X8531007D01*
X8547935Y11766984D01*
Y11783912D01*
X8531007Y11800840D01*
X8497152D01*
X8480224Y11817768D01*
Y11834696D01*
X8497152Y11851623D01*
X8531007D01*
X8547935Y11834696D01*
X8446368Y11750056D02*
X8378657D01*
X8412512D01*
Y11851623D01*
X10845783Y8167837D02*
X10744216D01*
Y8218621D01*
X10761144Y8235548D01*
X10795000D01*
X10811928Y8218621D01*
Y8167837D01*
Y8201693D02*
X10845783Y8235548D01*
Y8337116D02*
Y8269404D01*
X10778072Y8337116D01*
X10761144D01*
X10744216Y8320188D01*
Y8286332D01*
X10761144Y8269404D01*
X10744216Y8370972D02*
Y8438683D01*
X10761144D01*
X10828856Y8370972D01*
X10845783D01*
X11226783Y8165297D02*
X11125216D01*
Y8216081D01*
X11142144Y8233009D01*
X11176000D01*
X11192928Y8216081D01*
Y8165297D01*
Y8199153D02*
X11226783Y8233009D01*
Y8334576D02*
Y8266865D01*
X11159072Y8334576D01*
X11142144D01*
X11125216Y8317648D01*
Y8283792D01*
X11142144Y8266865D01*
X11125216Y8436143D02*
X11142144Y8402287D01*
X11176000Y8368432D01*
X11209855D01*
X11226783Y8385360D01*
Y8419215D01*
X11209855Y8436143D01*
X11192928D01*
X11176000Y8419215D01*
Y8368432D01*
X13345143Y9003497D02*
X13243576D01*
Y9054281D01*
X13260504Y9071208D01*
X13294360D01*
X13311288Y9054281D01*
Y9003497D01*
Y9037353D02*
X13345143Y9071208D01*
Y9172776D02*
Y9105064D01*
X13277432Y9172776D01*
X13260504D01*
X13243576Y9155848D01*
Y9121992D01*
X13260504Y9105064D01*
X13243576Y9274343D02*
Y9206632D01*
X13294360D01*
X13277432Y9240487D01*
Y9257415D01*
X13294360Y9274343D01*
X13328217D01*
X13345143Y9257415D01*
Y9223559D01*
X13328217Y9206632D01*
X11953223Y8383737D02*
X11851656D01*
Y8434521D01*
X11868584Y8451449D01*
X11902440D01*
X11919368Y8434521D01*
Y8383737D01*
Y8417593D02*
X11953223Y8451449D01*
Y8553016D02*
Y8485305D01*
X11885512Y8553016D01*
X11868584D01*
X11851656Y8536088D01*
Y8502232D01*
X11868584Y8485305D01*
X11953223Y8637655D02*
X11851656D01*
X11902440Y8586872D01*
Y8654583D01*
X13771077Y5918217D02*
Y6019784D01*
X13821861D01*
X13838788Y6002856D01*
Y5969000D01*
X13821861Y5952072D01*
X13771077D01*
X13804933D02*
X13838788Y5918217D01*
X13940356D02*
X13872644D01*
X13940356Y5985928D01*
Y6002856D01*
X13923428Y6019784D01*
X13889572D01*
X13872644Y6002856D01*
X13974213D02*
X13991139Y6019784D01*
X14024995D01*
X14041924Y6002856D01*
Y5985928D01*
X14024995Y5969000D01*
X14008067D01*
X14024995D01*
X14041924Y5952072D01*
Y5935144D01*
X14024995Y5918217D01*
X13991139D01*
X13974213Y5935144D01*
X13771077Y6108717D02*
Y6210284D01*
X13821861D01*
X13838788Y6193356D01*
Y6159500D01*
X13821861Y6142572D01*
X13771077D01*
X13804933D02*
X13838788Y6108717D01*
X13940356D02*
X13872644D01*
X13940356Y6176428D01*
Y6193356D01*
X13923428Y6210284D01*
X13889572D01*
X13872644Y6193356D01*
X14041924Y6108717D02*
X13974213D01*
X14041924Y6176428D01*
Y6193356D01*
X14024995Y6210284D01*
X13991139D01*
X13974213Y6193356D01*
X12124305Y5918217D02*
Y6019784D01*
X12175088D01*
X12192016Y6002856D01*
Y5969000D01*
X12175088Y5952072D01*
X12124305D01*
X12158161D02*
X12192016Y5918217D01*
X12293583D02*
X12225872D01*
X12293583Y5985928D01*
Y6002856D01*
X12276656Y6019784D01*
X12242800D01*
X12225872Y6002856D01*
X12327439Y5918217D02*
X12361295D01*
X12344367D01*
Y6019784D01*
X12327439Y6002856D01*
X12120077Y6108717D02*
Y6210284D01*
X12170861D01*
X12187788Y6193356D01*
Y6159500D01*
X12170861Y6142572D01*
X12120077D01*
X12153933D02*
X12187788Y6108717D01*
X12289356D02*
X12221644D01*
X12289356Y6176428D01*
Y6193356D01*
X12272428Y6210284D01*
X12238572D01*
X12221644Y6193356D01*
X12323212D02*
X12340139Y6210284D01*
X12373995D01*
X12390923Y6193356D01*
Y6125644D01*
X12373995Y6108717D01*
X12340139D01*
X12323212Y6125644D01*
Y6193356D01*
X10464841Y5918217D02*
Y6019784D01*
X10515625D01*
X10532552Y6002856D01*
Y5969000D01*
X10515625Y5952072D01*
X10464841D01*
X10498697D02*
X10532552Y5918217D01*
X10566408D02*
X10600264D01*
X10583336D01*
Y6019784D01*
X10566408Y6002856D01*
X10651048Y5935144D02*
X10667976Y5918217D01*
X10701831D01*
X10718759Y5935144D01*
Y6002856D01*
X10701831Y6019784D01*
X10667976D01*
X10651048Y6002856D01*
Y5985928D01*
X10667976Y5969000D01*
X10718759D01*
X10464841Y6108717D02*
Y6210284D01*
X10515625D01*
X10532552Y6193356D01*
Y6159500D01*
X10515625Y6142572D01*
X10464841D01*
X10498697D02*
X10532552Y6108717D01*
X10566408D02*
X10600264D01*
X10583336D01*
Y6210284D01*
X10566408Y6193356D01*
X10651048D02*
X10667976Y6210284D01*
X10701831D01*
X10718759Y6193356D01*
Y6176428D01*
X10701831Y6159500D01*
X10718759Y6142572D01*
Y6125644D01*
X10701831Y6108717D01*
X10667976D01*
X10651048Y6125644D01*
Y6142572D01*
X10667976Y6159500D01*
X10651048Y6176428D01*
Y6193356D01*
X10667976Y6159500D02*
X10701831D01*
X8813841Y5918217D02*
Y6019784D01*
X8864625D01*
X8881552Y6002856D01*
Y5969000D01*
X8864625Y5952072D01*
X8813841D01*
X8847697D02*
X8881552Y5918217D01*
X8915408D02*
X8949264D01*
X8932336D01*
Y6019784D01*
X8915408Y6002856D01*
X9000048Y6019784D02*
X9067759D01*
Y6002856D01*
X9000048Y5935144D01*
Y5918217D01*
X8813841Y6121417D02*
Y6222984D01*
X8864625D01*
X8881552Y6206056D01*
Y6172200D01*
X8864625Y6155272D01*
X8813841D01*
X8847697D02*
X8881552Y6121417D01*
X8915408D02*
X8949264D01*
X8932336D01*
Y6222984D01*
X8915408Y6206056D01*
X9067759Y6222984D02*
X9033903Y6206056D01*
X9000048Y6172200D01*
Y6138344D01*
X9016976Y6121417D01*
X9050831D01*
X9067759Y6138344D01*
Y6155272D01*
X9050831Y6172200D01*
X9000048D01*
X9326863Y10949981D02*
X9225296D01*
Y11000765D01*
X9242224Y11017692D01*
X9276080D01*
X9293008Y11000765D01*
Y10949981D01*
Y10983837D02*
X9326863Y11017692D01*
Y11051548D02*
Y11085404D01*
Y11068476D01*
X9225296D01*
X9242224Y11051548D01*
X9225296Y11203899D02*
Y11136188D01*
X9276080D01*
X9259152Y11170043D01*
Y11186971D01*
X9276080Y11203899D01*
X9309936D01*
X9326863Y11186971D01*
Y11153116D01*
X9309936Y11136188D01*
X8826541Y10817877D02*
Y10919444D01*
X8877325D01*
X8894252Y10902516D01*
Y10868660D01*
X8877325Y10851732D01*
X8826541D01*
X8860397D02*
X8894252Y10817877D01*
X8928108D02*
X8961964D01*
X8945036D01*
Y10919444D01*
X8928108Y10902516D01*
X9063531Y10817877D02*
Y10919444D01*
X9012748Y10868660D01*
X9080459D01*
X9870423Y11094761D02*
X9768856D01*
Y11145545D01*
X9785784Y11162472D01*
X9819640D01*
X9836568Y11145545D01*
Y11094761D01*
Y11128617D02*
X9870423Y11162472D01*
Y11196328D02*
Y11230184D01*
Y11213256D01*
X9768856D01*
X9785784Y11196328D01*
Y11280968D02*
X9768856Y11297896D01*
Y11331751D01*
X9785784Y11348679D01*
X9802712D01*
X9819640Y11331751D01*
Y11314823D01*
Y11331751D01*
X9836568Y11348679D01*
X9853496D01*
X9870423Y11331751D01*
Y11297896D01*
X9853496Y11280968D01*
X10429223Y11084601D02*
X10327656D01*
Y11135385D01*
X10344584Y11152312D01*
X10378440D01*
X10395368Y11135385D01*
Y11084601D01*
Y11118457D02*
X10429223Y11152312D01*
Y11186168D02*
Y11220024D01*
Y11203096D01*
X10327656D01*
X10344584Y11186168D01*
X10429223Y11338519D02*
Y11270808D01*
X10361512Y11338519D01*
X10344584D01*
X10327656Y11321591D01*
Y11287736D01*
X10344584Y11270808D01*
X10524949Y9113537D02*
Y9215104D01*
X10575732D01*
X10592660Y9198176D01*
Y9164320D01*
X10575732Y9147392D01*
X10524949D01*
X10558805D02*
X10592660Y9113537D01*
X10626516D02*
X10660372D01*
X10643444D01*
Y9215104D01*
X10626516Y9198176D01*
X10711156Y9113537D02*
X10745011D01*
X10728083D01*
Y9215104D01*
X10711156Y9198176D01*
X10525801Y8950977D02*
Y9052544D01*
X10576585D01*
X10593512Y9035616D01*
Y9001760D01*
X10576585Y8984832D01*
X10525801D01*
X10559657D02*
X10593512Y8950977D01*
X10627368D02*
X10661224D01*
X10644296D01*
Y9052544D01*
X10627368Y9035616D01*
X10712008D02*
X10728936Y9052544D01*
X10762791D01*
X10779719Y9035616D01*
Y8967904D01*
X10762791Y8950977D01*
X10728936D01*
X10712008Y8967904D01*
Y9035616D01*
X10949923Y9498781D02*
X10848356D01*
Y9549564D01*
X10865284Y9566492D01*
X10899140D01*
X10916068Y9549564D01*
Y9498781D01*
Y9532637D02*
X10949923Y9566492D01*
X10932996Y9600348D02*
X10949923Y9617276D01*
Y9651132D01*
X10932996Y9668059D01*
X10865284D01*
X10848356Y9651132D01*
Y9617276D01*
X10865284Y9600348D01*
X10882212D01*
X10899140Y9617276D01*
Y9668059D01*
X8424361Y10817877D02*
Y10919444D01*
X8475144D01*
X8492072Y10902516D01*
Y10868660D01*
X8475144Y10851732D01*
X8424361D01*
X8458217D02*
X8492072Y10817877D01*
X8525928Y10902516D02*
X8542856Y10919444D01*
X8576712D01*
X8593639Y10902516D01*
Y10885588D01*
X8576712Y10868660D01*
X8593639Y10851732D01*
Y10834804D01*
X8576712Y10817877D01*
X8542856D01*
X8525928Y10834804D01*
Y10851732D01*
X8542856Y10868660D01*
X8525928Y10885588D01*
Y10902516D01*
X8542856Y10868660D02*
X8576712D01*
X8249101Y9298957D02*
Y9400524D01*
X8299884D01*
X8316812Y9383596D01*
Y9349740D01*
X8299884Y9332812D01*
X8249101D01*
X8282957D02*
X8316812Y9298957D01*
X8350668Y9400524D02*
X8418379D01*
Y9383596D01*
X8350668Y9315884D01*
Y9298957D01*
X8249101Y9126237D02*
Y9227804D01*
X8299884D01*
X8316812Y9210876D01*
Y9177020D01*
X8299884Y9160092D01*
X8249101D01*
X8282957D02*
X8316812Y9126237D01*
X8418379Y9227804D02*
X8384524Y9210876D01*
X8350668Y9177020D01*
Y9143164D01*
X8367596Y9126237D01*
X8401452D01*
X8418379Y9143164D01*
Y9160092D01*
X8401452Y9177020D01*
X8350668D01*
X9042383Y10560501D02*
X8940816D01*
Y10611284D01*
X8957744Y10628212D01*
X8991600D01*
X9008528Y10611284D01*
Y10560501D01*
Y10594357D02*
X9042383Y10628212D01*
X8940816Y10729779D02*
Y10662068D01*
X8991600D01*
X8974672Y10695924D01*
Y10712852D01*
X8991600Y10729779D01*
X9025456D01*
X9042383Y10712852D01*
Y10678996D01*
X9025456Y10662068D01*
X6707321Y10922017D02*
Y11023584D01*
X6758104D01*
X6775032Y11006656D01*
Y10972800D01*
X6758104Y10955872D01*
X6707321D01*
X6741177D02*
X6775032Y10922017D01*
X6859672D02*
Y11023584D01*
X6808888Y10972800D01*
X6876599D01*
X6110421Y9050037D02*
Y9151604D01*
X6161204D01*
X6178132Y9134676D01*
Y9100820D01*
X6161204Y9083892D01*
X6110421D01*
X6144277D02*
X6178132Y9050037D01*
X6211988Y9134676D02*
X6228916Y9151604D01*
X6262772D01*
X6279699Y9134676D01*
Y9117748D01*
X6262772Y9100820D01*
X6245844D01*
X6262772D01*
X6279699Y9083892D01*
Y9066964D01*
X6262772Y9050037D01*
X6228916D01*
X6211988Y9066964D01*
X6783521Y8478537D02*
Y8580104D01*
X6834304D01*
X6851232Y8563176D01*
Y8529320D01*
X6834304Y8512392D01*
X6783521D01*
X6817377D02*
X6851232Y8478537D01*
X6952799D02*
X6885088D01*
X6952799Y8546248D01*
Y8563176D01*
X6935872Y8580104D01*
X6902016D01*
X6885088Y8563176D01*
X6472789Y6715777D02*
Y6817344D01*
X6523572D01*
X6540500Y6800416D01*
Y6766560D01*
X6523572Y6749632D01*
X6472789D01*
X6506644D02*
X6540500Y6715777D01*
X6574356D02*
X6608212D01*
X6591284D01*
Y6817344D01*
X6574356Y6800416D01*
X10631621Y9563084D02*
Y9461517D01*
X10699332D01*
X10733188Y9546156D02*
X10750116Y9563084D01*
X10783972D01*
X10800899Y9546156D01*
Y9529228D01*
X10783972Y9512300D01*
X10767044D01*
X10783972D01*
X10800899Y9495372D01*
Y9478444D01*
X10783972Y9461517D01*
X10750116D01*
X10733188Y9478444D01*
X10629081Y9718024D02*
Y9616457D01*
X10696792D01*
X10798359D02*
X10730648D01*
X10798359Y9684168D01*
Y9701096D01*
X10781432Y9718024D01*
X10747576D01*
X10730648Y9701096D01*
X6239109Y8272764D02*
Y8171197D01*
X6306820D01*
X6340676D02*
X6374532D01*
X6357604D01*
Y8272764D01*
X6340676Y8255836D01*
X14233211Y11752580D02*
X14165498D01*
X14199355Y11718724D02*
Y11786436D01*
X14063931Y11701796D02*
X14131642D01*
Y11752580D01*
X14097787Y11735652D01*
X14080859D01*
X14063931Y11752580D01*
Y11786436D01*
X14080859Y11803363D01*
X14114714D01*
X14131642Y11786436D01*
X14030075Y11701796D02*
Y11769508D01*
X13996219Y11803363D01*
X13962364Y11769508D01*
Y11701796D01*
X13826941D02*
X13793085D01*
X13810013D01*
Y11803363D01*
X13826941D01*
X13793085D01*
X13742300D02*
X13708446D01*
X13725372D01*
Y11701796D01*
X13742300Y11718724D01*
X13606879Y11803363D02*
Y11701796D01*
X13657661Y11752580D01*
X13589951D01*
X13405170Y11757660D02*
X13337457D01*
X13371313Y11723804D02*
Y11791516D01*
X13235892Y11706876D02*
X13303603D01*
Y11757660D01*
X13269746Y11740732D01*
X13252818D01*
X13235892Y11757660D01*
Y11791516D01*
X13252818Y11808443D01*
X13286674D01*
X13303603Y11791516D01*
X13202036Y11706876D02*
Y11774588D01*
X13168179Y11808443D01*
X13134325Y11774588D01*
Y11706876D01*
X12998901D02*
X12965045D01*
X12981973D01*
Y11808443D01*
X12998901D01*
X12965045D01*
X12914261D02*
X12880406D01*
X12897333D01*
Y11706876D01*
X12914261Y11723804D01*
X12761910Y11808443D02*
X12829622D01*
X12761910Y11740732D01*
Y11723804D01*
X12778838Y11706876D01*
X12812694D01*
X12829622Y11723804D01*
X12566970Y11755120D02*
X12499258D01*
X12533114Y11721264D02*
Y11788976D01*
X12397691Y11704336D02*
X12465402D01*
Y11755120D01*
X12431547Y11738192D01*
X12414619D01*
X12397691Y11755120D01*
Y11788976D01*
X12414619Y11805903D01*
X12448474D01*
X12465402Y11788976D01*
X12363835Y11704336D02*
Y11772048D01*
X12329979Y11805903D01*
X12296124Y11772048D01*
Y11704336D01*
X12160701D02*
X12126845D01*
X12143773D01*
Y11805903D01*
X12160701D01*
X12126845D01*
X12076061D02*
X12042206D01*
X12059133D01*
Y11704336D01*
X12076061Y11721264D01*
X11991422D02*
X11974494Y11704336D01*
X11940638D01*
X11923710Y11721264D01*
Y11788976D01*
X11940638Y11805903D01*
X11974494D01*
X11991422Y11788976D01*
Y11721264D01*
X11734709Y11757660D02*
X11666998D01*
X11700854Y11723804D02*
Y11791516D01*
X11565431Y11706876D02*
X11633142D01*
Y11757660D01*
X11599286Y11740732D01*
X11582359D01*
X11565431Y11757660D01*
Y11791516D01*
X11582359Y11808443D01*
X11616214D01*
X11633142Y11791516D01*
X11531575Y11706876D02*
Y11774588D01*
X11497719Y11808443D01*
X11463864Y11774588D01*
Y11706876D01*
X11328440D02*
X11294585D01*
X11311513D01*
Y11808443D01*
X11328440D01*
X11294585D01*
X11243801Y11723804D02*
X11226873Y11706876D01*
X11193017D01*
X11176090Y11723804D01*
Y11740732D01*
X11193017Y11757660D01*
X11176090Y11774588D01*
Y11791516D01*
X11193017Y11808443D01*
X11226873D01*
X11243801Y11791516D01*
Y11774588D01*
X11226873Y11757660D01*
X11243801Y11740732D01*
Y11723804D01*
X11226873Y11757660D02*
X11193017D01*
X15196820Y6766650D02*
Y6834362D01*
X15162964Y6800506D02*
X15230675D01*
X15146036Y6935929D02*
Y6868218D01*
X15196820D01*
X15179892Y6902073D01*
Y6919001D01*
X15196820Y6935929D01*
X15230675D01*
X15247603Y6919001D01*
Y6885145D01*
X15230675Y6868218D01*
X15146036Y6969785D02*
X15213748D01*
X15247603Y7003641D01*
X15213748Y7037496D01*
X15146036D01*
Y7172919D02*
Y7206775D01*
Y7189847D01*
X15247603D01*
Y7172919D01*
Y7206775D01*
X15146036Y7325270D02*
X15162964Y7291414D01*
X15196820Y7257559D01*
X15230675D01*
X15247603Y7274487D01*
Y7308342D01*
X15230675Y7325270D01*
X15213748D01*
X15196820Y7308342D01*
Y7257559D01*
X15194279Y7589610D02*
Y7657322D01*
X15160423Y7623466D02*
X15228136D01*
X15143497Y7758889D02*
Y7691178D01*
X15194279D01*
X15177351Y7725033D01*
Y7741961D01*
X15194279Y7758889D01*
X15228136D01*
X15245062Y7741961D01*
Y7708105D01*
X15228136Y7691178D01*
X15143497Y7792745D02*
X15211208D01*
X15245062Y7826601D01*
X15211208Y7860456D01*
X15143497D01*
Y7995879D02*
Y8029735D01*
Y8012807D01*
X15245062D01*
Y7995879D01*
Y8029735D01*
Y8131302D02*
X15143497D01*
X15194279Y8080519D01*
Y8148230D01*
X15184120Y8387170D02*
Y8454882D01*
X15150264Y8421026D02*
X15217975D01*
X15133336Y8556449D02*
Y8488738D01*
X15184120D01*
X15167192Y8522593D01*
Y8539521D01*
X15184120Y8556449D01*
X15217975D01*
X15234903Y8539521D01*
Y8505665D01*
X15217975Y8488738D01*
X15133336Y8590305D02*
X15201048D01*
X15234903Y8624161D01*
X15201048Y8658016D01*
X15133336D01*
Y8793439D02*
Y8827295D01*
Y8810367D01*
X15234903D01*
Y8793439D01*
Y8827295D01*
Y8945790D02*
Y8878079D01*
X15167192Y8945790D01*
X15150264D01*
X15133336Y8928862D01*
Y8895007D01*
X15150264Y8878079D01*
X15189200Y9177110D02*
Y9244821D01*
X15155344Y9210966D02*
X15223056D01*
X15138416Y9346389D02*
Y9278677D01*
X15189200D01*
X15172272Y9312533D01*
Y9329461D01*
X15189200Y9346389D01*
X15223056D01*
X15239983Y9329461D01*
Y9295605D01*
X15223056Y9278677D01*
X15138416Y9380245D02*
X15206128D01*
X15239983Y9414100D01*
X15206128Y9447956D01*
X15138416D01*
Y9583379D02*
Y9617235D01*
Y9600307D01*
X15239983D01*
Y9583379D01*
Y9617235D01*
X15155344Y9668019D02*
X15138416Y9684946D01*
Y9718802D01*
X15155344Y9735730D01*
X15223056D01*
X15239983Y9718802D01*
Y9684946D01*
X15223056Y9668019D01*
X15155344D01*
X13559470Y10363200D02*
X13627182D01*
X13593326Y10397056D02*
Y10329344D01*
X13728749Y10413984D02*
X13661038D01*
Y10363200D01*
X13694893Y10380128D01*
X13711821D01*
X13728749Y10363200D01*
Y10329344D01*
X13711821Y10312417D01*
X13677966D01*
X13661038Y10329344D01*
X13762605Y10413984D02*
Y10346272D01*
X13796461Y10312417D01*
X13830316Y10346272D01*
Y10413984D01*
X13965739D02*
X13999596D01*
X13982668D01*
Y10312417D01*
X13965739D01*
X13999596D01*
X14050378D02*
X14084235D01*
X14067307D01*
Y10413984D01*
X14050378Y10397056D01*
X14202730Y10413984D02*
X14135017D01*
Y10363200D01*
X14168874Y10380128D01*
X14185802D01*
X14202730Y10363200D01*
Y10329344D01*
X14185802Y10312417D01*
X14151945D01*
X14135017Y10329344D01*
X12744130Y10360660D02*
X12811842D01*
X12777986Y10394516D02*
Y10326804D01*
X12913409Y10411444D02*
X12845699D01*
Y10360660D01*
X12879553Y10377588D01*
X12896481D01*
X12913409Y10360660D01*
Y10326804D01*
X12896481Y10309877D01*
X12862627D01*
X12845699Y10326804D01*
X12947266Y10411444D02*
Y10343732D01*
X12981120Y10309877D01*
X13014977Y10343732D01*
Y10411444D01*
X13150398D02*
X13184254D01*
X13167326D01*
Y10309877D01*
X13150398D01*
X13184254D01*
X13235039D02*
X13268893D01*
X13251967D01*
Y10411444D01*
X13235039Y10394516D01*
X13319678D02*
X13336606Y10411444D01*
X13370462D01*
X13387390Y10394516D01*
Y10377588D01*
X13370462Y10360660D01*
X13353534D01*
X13370462D01*
X13387390Y10343732D01*
Y10326804D01*
X13370462Y10309877D01*
X13336606D01*
X13319678Y10326804D01*
X11915238Y10347960D02*
X11982950D01*
X11949094Y10381816D02*
Y10314104D01*
X12084517Y10398744D02*
X12016806D01*
Y10347960D01*
X12050661Y10364888D01*
X12067589D01*
X12084517Y10347960D01*
Y10314104D01*
X12067589Y10297177D01*
X12033733D01*
X12016806Y10314104D01*
X12118373Y10398744D02*
Y10331032D01*
X12152228Y10297177D01*
X12186084Y10331032D01*
Y10398744D01*
X12321507D02*
X12355363D01*
X12338435D01*
Y10297177D01*
X12321507D01*
X12355363D01*
X12406147D02*
X12440002D01*
X12423074D01*
Y10398744D01*
X12406147Y10381816D01*
X12490786Y10297177D02*
X12524642D01*
X12507714D01*
Y10398744D01*
X12490786Y10381816D01*
X11094810Y10347960D02*
X11162521D01*
X11128666Y10381816D02*
Y10314104D01*
X11264089Y10398744D02*
X11196377D01*
Y10347960D01*
X11230233Y10364888D01*
X11247161D01*
X11264089Y10347960D01*
Y10314104D01*
X11247161Y10297177D01*
X11213305D01*
X11196377Y10314104D01*
X11297945Y10398744D02*
Y10331032D01*
X11331800Y10297177D01*
X11365656Y10331032D01*
Y10398744D01*
X11501079D02*
X11534935D01*
X11518007D01*
Y10297177D01*
X11501079D01*
X11534935D01*
X11585719Y10314104D02*
X11602646Y10297177D01*
X11636502D01*
X11653430Y10314104D01*
Y10381816D01*
X11636502Y10398744D01*
X11602646D01*
X11585719Y10381816D01*
Y10364888D01*
X11602646Y10347960D01*
X11653430D01*
X13741400Y7340510D02*
Y7272799D01*
X13775256Y7306654D02*
X13707544D01*
X13792184Y7171231D02*
Y7238943D01*
X13741400D01*
X13758328Y7205087D01*
Y7188159D01*
X13741400Y7171231D01*
X13707544D01*
X13690617Y7188159D01*
Y7222015D01*
X13707544Y7238943D01*
X13792184Y7137375D02*
X13724472D01*
X13690617Y7103520D01*
X13724472Y7069664D01*
X13792184D01*
Y6934241D02*
Y6900385D01*
Y6917313D01*
X13690617D01*
Y6934241D01*
Y6900385D01*
X13792184Y6849601D02*
Y6781890D01*
X13775256D01*
X13707544Y6849601D01*
X13690617D01*
X13766800Y8178710D02*
Y8110999D01*
X13800656Y8144854D02*
X13732944D01*
X13817584Y8009431D02*
Y8077143D01*
X13766800D01*
X13783728Y8043287D01*
Y8026359D01*
X13766800Y8009431D01*
X13732944D01*
X13716017Y8026359D01*
Y8060215D01*
X13732944Y8077143D01*
X13817584Y7975575D02*
X13749872D01*
X13716017Y7941720D01*
X13749872Y7907864D01*
X13817584D01*
Y7772441D02*
Y7738585D01*
Y7755513D01*
X13716017D01*
Y7772441D01*
Y7738585D01*
X13817584Y7620090D02*
Y7687801D01*
X13766800D01*
X13783728Y7653946D01*
Y7637018D01*
X13766800Y7620090D01*
X13732944D01*
X13716017Y7637018D01*
Y7670874D01*
X13732944Y7687801D01*
X13774420Y8986430D02*
Y8918719D01*
X13808276Y8952574D02*
X13740564D01*
X13825204Y8817151D02*
Y8884863D01*
X13774420D01*
X13791348Y8851007D01*
Y8834079D01*
X13774420Y8817151D01*
X13740564D01*
X13723637Y8834079D01*
Y8867935D01*
X13740564Y8884863D01*
X13825204Y8783295D02*
X13757492D01*
X13723637Y8749440D01*
X13757492Y8715584D01*
X13825204D01*
Y8580161D02*
Y8546305D01*
Y8563233D01*
X13723637D01*
Y8580161D01*
Y8546305D01*
X13808276Y8495521D02*
X13825204Y8478594D01*
Y8444738D01*
X13808276Y8427810D01*
X13791348D01*
X13774420Y8444738D01*
Y8461666D01*
Y8444738D01*
X13757492Y8427810D01*
X13740564D01*
X13723637Y8444738D01*
Y8478594D01*
X13740564Y8495521D01*
X13766800Y9812782D02*
Y9745070D01*
X13800656Y9778926D02*
X13732944D01*
X13817583Y9643503D02*
Y9711215D01*
X13766800D01*
X13783728Y9677359D01*
Y9660431D01*
X13766800Y9643503D01*
X13732944D01*
X13716016Y9660431D01*
Y9694287D01*
X13732944Y9711215D01*
X13817583Y9609647D02*
X13749872D01*
X13716016Y9575792D01*
X13749872Y9541936D01*
X13817583D01*
Y9406513D02*
Y9372657D01*
Y9389585D01*
X13716016D01*
Y9406513D01*
Y9372657D01*
Y9321873D02*
Y9288018D01*
Y9304946D01*
X13817583D01*
X13800656Y9321873D01*
X9475912Y7048484D02*
X9442057D01*
X9458985D01*
Y6963844D01*
X9442057Y6946917D01*
X9425129D01*
X9408201Y6963844D01*
X9509768Y6946917D02*
X9543624D01*
X9526696D01*
Y7048484D01*
X9509768Y7031556D01*
X9594408D02*
X9611336Y7048484D01*
X9645191D01*
X9662119Y7031556D01*
Y6963844D01*
X9645191Y6946917D01*
X9611336D01*
X9594408Y6963844D01*
Y7031556D01*
X13020148Y4572000D02*
X13087859D01*
X13054002Y4605856D02*
Y4538144D01*
X13223280Y4622784D02*
Y4521217D01*
X13274065D01*
X13290993Y4538144D01*
Y4605856D01*
X13274065Y4622784D01*
X13223280D01*
X13324847Y4521217D02*
X13358704D01*
X13341776D01*
Y4622784D01*
X13324847Y4605856D01*
X13409488D02*
X13426416Y4622784D01*
X13460271D01*
X13477199Y4605856D01*
Y4538144D01*
X13460271Y4521217D01*
X13426416D01*
X13409488Y4538144D01*
Y4605856D01*
X13612622Y4572000D02*
X13680334D01*
X11351367D02*
X11419078D01*
X11385222Y4605856D02*
Y4538144D01*
X11554501Y4622784D02*
Y4521217D01*
X11605285D01*
X11622212Y4538144D01*
Y4605856D01*
X11605285Y4622784D01*
X11554501D01*
X11656068Y4521217D02*
X11689924D01*
X11672996D01*
Y4622784D01*
X11656068Y4605856D01*
X11740708D02*
X11757636Y4622784D01*
X11791491D01*
X11808419Y4605856D01*
Y4588928D01*
X11791491Y4572000D01*
X11774563D01*
X11791491D01*
X11808419Y4555072D01*
Y4538144D01*
X11791491Y4521217D01*
X11757636D01*
X11740708Y4538144D01*
X11943842Y4572000D02*
X12011554D01*
X9697827D02*
X9765538D01*
X9731682Y4605856D02*
Y4538144D01*
X9900961Y4622784D02*
Y4521217D01*
X9951745D01*
X9968672Y4538144D01*
Y4605856D01*
X9951745Y4622784D01*
X9900961D01*
X10002528Y4521217D02*
X10036384D01*
X10019456D01*
Y4622784D01*
X10002528Y4605856D01*
X10154879Y4521217D02*
X10087168D01*
X10154879Y4588928D01*
Y4605856D01*
X10137951Y4622784D01*
X10104096D01*
X10087168Y4605856D01*
X10290302Y4572000D02*
X10358014D01*
X8060370D02*
X8128082D01*
X8094226Y4605856D02*
Y4538144D01*
X8263505Y4622784D02*
Y4521217D01*
X8314288D01*
X8331216Y4538144D01*
Y4605856D01*
X8314288Y4622784D01*
X8263505D01*
X8365072Y4521217D02*
X8398928D01*
X8382000D01*
Y4622784D01*
X8365072Y4605856D01*
X8449712Y4521217D02*
X8483567D01*
X8466639D01*
Y4622784D01*
X8449712Y4605856D01*
X8635918Y4572000D02*
X8703630D01*
X7901956Y9208401D02*
X8003523D01*
Y9259185D01*
X7986596Y9276113D01*
X7969668D01*
X7952740Y9259185D01*
Y9208401D01*
Y9259185D01*
X7935812Y9276113D01*
X7918884D01*
X7901956Y9259185D01*
Y9208401D01*
X8003523Y9326897D02*
Y9360752D01*
X7986596Y9377680D01*
X7952740D01*
X7935812Y9360752D01*
Y9326897D01*
X7952740Y9309969D01*
X7986596D01*
X8003523Y9326897D01*
Y9428464D02*
Y9462319D01*
X7986596Y9479247D01*
X7952740D01*
X7935812Y9462319D01*
Y9428464D01*
X7952740Y9411536D01*
X7986596D01*
X8003523Y9428464D01*
X7918884Y9530031D02*
X7935812D01*
Y9513103D01*
Y9546959D01*
Y9530031D01*
X7986596D01*
X8003523Y9546959D01*
X7692791Y11754284D02*
X7709719Y11737356D01*
X7743575D01*
X7760502Y11754284D01*
Y11771212D01*
X7743575Y11788140D01*
X7709719D01*
X7692791Y11805068D01*
Y11821996D01*
X7709719Y11838923D01*
X7743575D01*
X7760502Y11821996D01*
X7658935Y11737356D02*
Y11838923D01*
X7625079Y11805068D01*
X7591224Y11838923D01*
Y11737356D01*
X7557368D02*
Y11838923D01*
X7506584D01*
X7489657Y11821996D01*
Y11754284D01*
X7506584Y11737356D01*
X7557368D01*
X6152716Y6345665D02*
X6169643Y6362593D01*
Y6396449D01*
X6152716Y6413377D01*
X6085004D01*
X6068076Y6396449D01*
Y6362593D01*
X6085004Y6345665D01*
X6118860D01*
Y6379521D01*
X6068076Y6311810D02*
X6169643D01*
X6068076Y6244098D01*
X6169643D01*
Y6210242D02*
X6068076D01*
Y6159459D01*
X6085004Y6142531D01*
X6152716D01*
X6169643Y6159459D01*
Y6210242D01*
X6118860Y6007108D02*
Y5939397D01*
X6152716Y5973252D02*
X6085004D01*
X6068076Y5905541D02*
Y5871685D01*
Y5888613D01*
X6169643D01*
X6152716Y5905541D01*
X6068076Y5753190D02*
Y5820901D01*
X6135788Y5753190D01*
X6152716D01*
X6169643Y5770118D01*
Y5803973D01*
X6152716Y5820901D01*
X6169643Y5719334D02*
X6101932D01*
X6068076Y5685478D01*
X6101932Y5651623D01*
X6169643D01*
X12678861Y5702284D02*
Y5600717D01*
X12729644D01*
X12746572Y5617644D01*
Y5685356D01*
X12729644Y5702284D01*
X12678861D01*
X12780428Y5685356D02*
X12797356Y5702284D01*
X12831212D01*
X12848138Y5685356D01*
Y5668428D01*
X12831212Y5651500D01*
X12848138Y5634572D01*
Y5617644D01*
X12831212Y5600717D01*
X12797356D01*
X12780428Y5617644D01*
Y5634572D01*
X12797356Y5651500D01*
X12780428Y5668428D01*
Y5685356D01*
X12797356Y5651500D02*
X12831212D01*
X11040561Y5702284D02*
Y5600717D01*
X11091344D01*
X11108272Y5617644D01*
Y5685356D01*
X11091344Y5702284D01*
X11040561D01*
X11142128D02*
X11209839D01*
Y5685356D01*
X11142128Y5617644D01*
Y5600717D01*
X9376861Y5702284D02*
Y5600717D01*
X9427644D01*
X9444572Y5617644D01*
Y5685356D01*
X9427644Y5702284D01*
X9376861D01*
X9546139D02*
X9512284Y5685356D01*
X9478428Y5651500D01*
Y5617644D01*
X9495356Y5600717D01*
X9529212D01*
X9546139Y5617644D01*
Y5634572D01*
X9529212Y5651500D01*
X9478428D01*
X7713161Y5702284D02*
Y5600717D01*
X7763944D01*
X7780872Y5617644D01*
Y5685356D01*
X7763944Y5702284D01*
X7713161D01*
X7882439D02*
X7814728D01*
Y5651500D01*
X7848584Y5668428D01*
X7865512D01*
X7882439Y5651500D01*
Y5617644D01*
X7865512Y5600717D01*
X7831656D01*
X7814728Y5617644D01*
X9400556Y10946581D02*
X9502123D01*
Y10997364D01*
X9485196Y11014292D01*
X9417484D01*
X9400556Y10997364D01*
Y10946581D01*
X9502123Y11098932D02*
X9400556D01*
X9451340Y11048148D01*
Y11115859D01*
X6443161Y9464024D02*
Y9362457D01*
X6493944D01*
X6510872Y9379384D01*
Y9447096D01*
X6493944Y9464024D01*
X6443161D01*
X6544728Y9447096D02*
X6561656Y9464024D01*
X6595512D01*
X6612439Y9447096D01*
Y9430168D01*
X6595512Y9413240D01*
X6578584D01*
X6595512D01*
X6612439Y9396312D01*
Y9379384D01*
X6595512Y9362457D01*
X6561656D01*
X6544728Y9379384D01*
X6704781Y10848324D02*
Y10746757D01*
X6755564D01*
X6772492Y10763684D01*
Y10831396D01*
X6755564Y10848324D01*
X6704781D01*
X6874059Y10746757D02*
X6806348D01*
X6874059Y10814468D01*
Y10831396D01*
X6857132Y10848324D01*
X6823276D01*
X6806348Y10831396D01*
X6912209Y10464784D02*
Y10363217D01*
X6962992D01*
X6979920Y10380144D01*
Y10447856D01*
X6962992Y10464784D01*
X6912209D01*
X7013776Y10363217D02*
X7047632D01*
X7030704D01*
Y10464784D01*
X7013776Y10447856D01*
X10949104Y8232156D02*
X10932176Y8215228D01*
Y8181373D01*
X10949104Y8164445D01*
X11016816D01*
X11033743Y8181373D01*
Y8215228D01*
X11016816Y8232156D01*
X11033743Y8333723D02*
Y8266012D01*
X10966032Y8333723D01*
X10949104D01*
X10932176Y8316796D01*
Y8282940D01*
X10949104Y8266012D01*
X11033743Y8367579D02*
Y8401435D01*
Y8384507D01*
X10932176D01*
X10949104Y8367579D01*
X11845724Y9088988D02*
X11828796Y9072061D01*
Y9038205D01*
X11845724Y9021277D01*
X11913436D01*
X11930363Y9038205D01*
Y9072061D01*
X11913436Y9088988D01*
X11930363Y9190556D02*
Y9122844D01*
X11862652Y9190556D01*
X11845724D01*
X11828796Y9173628D01*
Y9139772D01*
X11845724Y9122844D01*
Y9224412D02*
X11828796Y9241339D01*
Y9275195D01*
X11845724Y9292123D01*
X11913436D01*
X11930363Y9275195D01*
Y9241339D01*
X11913436Y9224412D01*
X11845724D01*
X9394632Y8055176D02*
X9377705Y8072104D01*
X9343849D01*
X9326921Y8055176D01*
Y7987464D01*
X9343849Y7970537D01*
X9377705D01*
X9394632Y7987464D01*
X9428488Y7970537D02*
X9462344D01*
X9445416D01*
Y8072104D01*
X9428488Y8055176D01*
X9513128Y7987464D02*
X9530056Y7970537D01*
X9563911D01*
X9580839Y7987464D01*
Y8055176D01*
X9563911Y8072104D01*
X9530056D01*
X9513128Y8055176D01*
Y8038248D01*
X9530056Y8021320D01*
X9580839D01*
X12958252Y6498156D02*
X12941325Y6515084D01*
X12907469D01*
X12890541Y6498156D01*
Y6430444D01*
X12907469Y6413517D01*
X12941325D01*
X12958252Y6430444D01*
X12992108Y6413517D02*
X13025964D01*
X13009036D01*
Y6515084D01*
X12992108Y6498156D01*
X13076749D02*
X13093677Y6515084D01*
X13127531D01*
X13144460Y6498156D01*
Y6481228D01*
X13127531Y6464300D01*
X13144460Y6447372D01*
Y6430444D01*
X13127531Y6413517D01*
X13093677D01*
X13076749Y6430444D01*
Y6447372D01*
X13093677Y6464300D01*
X13076749Y6481228D01*
Y6498156D01*
X13093677Y6464300D02*
X13127531D01*
X11307252Y6498156D02*
X11290325Y6515084D01*
X11256469D01*
X11239541Y6498156D01*
Y6430444D01*
X11256469Y6413517D01*
X11290325D01*
X11307252Y6430444D01*
X11341108Y6413517D02*
X11374964D01*
X11358036D01*
Y6515084D01*
X11341108Y6498156D01*
X11425748Y6515084D02*
X11493459D01*
Y6498156D01*
X11425748Y6430444D01*
Y6413517D01*
X9656252Y6498156D02*
X9639325Y6515084D01*
X9605469D01*
X9588541Y6498156D01*
Y6430444D01*
X9605469Y6413517D01*
X9639325D01*
X9656252Y6430444D01*
X9690108Y6413517D02*
X9723964D01*
X9707036D01*
Y6515084D01*
X9690108Y6498156D01*
X9842459Y6515084D02*
X9808603Y6498156D01*
X9774748Y6464300D01*
Y6430444D01*
X9791676Y6413517D01*
X9825531D01*
X9842459Y6430444D01*
Y6447372D01*
X9825531Y6464300D01*
X9774748D01*
X7992552Y6498156D02*
X7975625Y6515084D01*
X7941769D01*
X7924841Y6498156D01*
Y6430444D01*
X7941769Y6413517D01*
X7975625D01*
X7992552Y6430444D01*
X8026408Y6413517D02*
X8060264D01*
X8043336D01*
Y6515084D01*
X8026408Y6498156D01*
X8178759Y6515084D02*
X8111048D01*
Y6464300D01*
X8144903Y6481228D01*
X8161831D01*
X8178759Y6464300D01*
Y6430444D01*
X8161831Y6413517D01*
X8127976D01*
X8111048Y6430444D01*
X10593512Y9861116D02*
X10576585Y9878044D01*
X10542729D01*
X10525801Y9861116D01*
Y9793404D01*
X10542729Y9776477D01*
X10576585D01*
X10593512Y9793404D01*
X10627368Y9776477D02*
X10661224D01*
X10644296D01*
Y9878044D01*
X10627368Y9861116D01*
X10762791Y9776477D02*
Y9878044D01*
X10712008Y9827260D01*
X10779719D01*
X10590972Y9365816D02*
X10574045Y9382744D01*
X10540189D01*
X10523261Y9365816D01*
Y9298104D01*
X10540189Y9281177D01*
X10574045D01*
X10590972Y9298104D01*
X10624828Y9281177D02*
X10658684D01*
X10641756D01*
Y9382744D01*
X10624828Y9365816D01*
X10709468D02*
X10726396Y9382744D01*
X10760251D01*
X10777179Y9365816D01*
Y9348888D01*
X10760251Y9331960D01*
X10743323D01*
X10760251D01*
X10777179Y9315032D01*
Y9298104D01*
X10760251Y9281177D01*
X10726396D01*
X10709468Y9298104D01*
X9666404Y10679872D02*
X9649476Y10662945D01*
Y10629089D01*
X9666404Y10612161D01*
X9734116D01*
X9751043Y10629089D01*
Y10662945D01*
X9734116Y10679872D01*
X9751043Y10713728D02*
Y10747584D01*
Y10730656D01*
X9649476D01*
X9666404Y10713728D01*
X9751043Y10866079D02*
Y10798368D01*
X9683332Y10866079D01*
X9666404D01*
X9649476Y10849151D01*
Y10815296D01*
X9666404Y10798368D01*
X8271100Y9716336D02*
X8254172Y9733264D01*
X8220317D01*
X8203389Y9716336D01*
Y9648624D01*
X8220317Y9631697D01*
X8254172D01*
X8271100Y9648624D01*
X8304956Y9631697D02*
X8338812D01*
X8321884D01*
Y9733264D01*
X8304956Y9716336D01*
X8389596Y9631697D02*
X8423451D01*
X8406523D01*
Y9733264D01*
X8389596Y9716336D01*
X9836584Y10679872D02*
X9819656Y10662945D01*
Y10629089D01*
X9836584Y10612161D01*
X9904296D01*
X9921223Y10629089D01*
Y10662945D01*
X9904296Y10679872D01*
X9921223Y10713728D02*
Y10747584D01*
Y10730656D01*
X9819656D01*
X9836584Y10713728D01*
Y10798368D02*
X9819656Y10815296D01*
Y10849151D01*
X9836584Y10866079D01*
X9904296D01*
X9921223Y10849151D01*
Y10815296D01*
X9904296Y10798368D01*
X9836584D01*
X8314272Y9551236D02*
X8297344Y9568164D01*
X8263489D01*
X8246561Y9551236D01*
Y9483524D01*
X8263489Y9466597D01*
X8297344D01*
X8314272Y9483524D01*
X8348128D02*
X8365056Y9466597D01*
X8398912D01*
X8415839Y9483524D01*
Y9551236D01*
X8398912Y9568164D01*
X8365056D01*
X8348128Y9551236D01*
Y9534308D01*
X8365056Y9517380D01*
X8415839D01*
X9182952Y8794316D02*
X9166024Y8811244D01*
X9132169D01*
X9115241Y8794316D01*
Y8726604D01*
X9132169Y8709677D01*
X9166024D01*
X9182952Y8726604D01*
X9216808Y8794316D02*
X9233736Y8811244D01*
X9267592D01*
X9284519Y8794316D01*
Y8777388D01*
X9267592Y8760460D01*
X9284519Y8743532D01*
Y8726604D01*
X9267592Y8709677D01*
X9233736D01*
X9216808Y8726604D01*
Y8743532D01*
X9233736Y8760460D01*
X9216808Y8777388D01*
Y8794316D01*
X9233736Y8760460D02*
X9267592D01*
X9135544Y10628212D02*
X9118616Y10611284D01*
Y10577429D01*
X9135544Y10560501D01*
X9203256D01*
X9220183Y10577429D01*
Y10611284D01*
X9203256Y10628212D01*
X9118616Y10662068D02*
Y10729779D01*
X9135544D01*
X9203256Y10662068D01*
X9220183D01*
X10374212Y10059236D02*
X10357284Y10076164D01*
X10323429D01*
X10306501Y10059236D01*
Y9991524D01*
X10323429Y9974597D01*
X10357284D01*
X10374212Y9991524D01*
X10475779Y10076164D02*
X10441924Y10059236D01*
X10408068Y10025380D01*
Y9991524D01*
X10424996Y9974597D01*
X10458852D01*
X10475779Y9991524D01*
Y10008452D01*
X10458852Y10025380D01*
X10408068D01*
X7146724Y8314272D02*
X7129796Y8297344D01*
Y8263489D01*
X7146724Y8246561D01*
X7214436D01*
X7231363Y8263489D01*
Y8297344D01*
X7214436Y8314272D01*
X7129796Y8415839D02*
Y8348128D01*
X7180580D01*
X7163652Y8381984D01*
Y8398912D01*
X7180580Y8415839D01*
X7214436D01*
X7231363Y8398912D01*
Y8365056D01*
X7214436Y8348128D01*
X6956224Y8311732D02*
X6939296Y8294804D01*
Y8260949D01*
X6956224Y8244021D01*
X7023936D01*
X7040863Y8260949D01*
Y8294804D01*
X7023936Y8311732D01*
X7040863Y8396372D02*
X6939296D01*
X6990080Y8345588D01*
Y8413299D01*
X7752932Y7046796D02*
X7736004Y7063724D01*
X7702149D01*
X7685221Y7046796D01*
Y6979084D01*
X7702149Y6962157D01*
X7736004D01*
X7752932Y6979084D01*
X7786788Y7046796D02*
X7803716Y7063724D01*
X7837572D01*
X7854499Y7046796D01*
Y7029868D01*
X7837572Y7012940D01*
X7820644D01*
X7837572D01*
X7854499Y6996012D01*
Y6979084D01*
X7837572Y6962157D01*
X7803716D01*
X7786788Y6979084D01*
X7148412Y7056956D02*
X7131484Y7073884D01*
X7097629D01*
X7080701Y7056956D01*
Y6989244D01*
X7097629Y6972317D01*
X7131484D01*
X7148412Y6989244D01*
X7249979Y6972317D02*
X7182268D01*
X7249979Y7040028D01*
Y7056956D01*
X7233052Y7073884D01*
X7199196D01*
X7182268Y7056956D01*
X6248400Y7752916D02*
X6231472Y7769844D01*
X6197617D01*
X6180689Y7752916D01*
Y7685204D01*
X6197617Y7668277D01*
X6231472D01*
X6248400Y7685204D01*
X6282256Y7668277D02*
X6316112D01*
X6299184D01*
Y7769844D01*
X6282256Y7752916D01*
D80*
X9588500Y5714959D02*
Y5588000D01*
X12890500Y5714959D02*
Y5588000D01*
X11239500Y5714959D02*
Y5588000D01*
X7937500Y5714959D02*
Y5588000D01*
%TF.MD5,3a79a83742db03e3331128da9fbad03a*%
M02*
