%TF.GenerationSoftware,Altium Limited,Altium Designer,24.2.2 (26)*%
G04 Layer_Color=255*
%FSLAX45Y45*%
%MOMM*%
%TF.SameCoordinates,CD070EA7-D628-40BE-AF17-708C1490C7C2*%
%TF.FilePolarity,Positive*%
%TF.FileFunction,Pads,Top*%
%TF.Part,Single*%
G01*
G75*
%TA.AperFunction,SMDPad,CuDef*%
%ADD10R,3.00000X1.60000*%
G04:AMPARAMS|DCode=11|XSize=0.25mm|YSize=1.25mm|CornerRadius=0.0625mm|HoleSize=0mm|Usage=FLASHONLY|Rotation=0.000|XOffset=0mm|YOffset=0mm|HoleType=Round|Shape=RoundedRectangle|*
%AMROUNDEDRECTD11*
21,1,0.25000,1.12500,0,0,0.0*
21,1,0.12500,1.25000,0,0,0.0*
1,1,0.12500,0.06250,-0.56250*
1,1,0.12500,-0.06250,-0.56250*
1,1,0.12500,-0.06250,0.56250*
1,1,0.12500,0.06250,0.56250*
%
%ADD11ROUNDEDRECTD11*%
G04:AMPARAMS|DCode=12|XSize=0.25mm|YSize=1.25mm|CornerRadius=0.0625mm|HoleSize=0mm|Usage=FLASHONLY|Rotation=270.000|XOffset=0mm|YOffset=0mm|HoleType=Round|Shape=RoundedRectangle|*
%AMROUNDEDRECTD12*
21,1,0.25000,1.12500,0,0,270.0*
21,1,0.12500,1.25000,0,0,270.0*
1,1,0.12500,-0.56250,-0.06250*
1,1,0.12500,-0.56250,0.06250*
1,1,0.12500,0.56250,0.06250*
1,1,0.12500,0.56250,-0.06250*
%
%ADD12ROUNDEDRECTD12*%
G04:AMPARAMS|DCode=13|XSize=0.66mm|YSize=0.32mm|CornerRadius=0.04mm|HoleSize=0mm|Usage=FLASHONLY|Rotation=90.000|XOffset=0mm|YOffset=0mm|HoleType=Round|Shape=RoundedRectangle|*
%AMROUNDEDRECTD13*
21,1,0.66000,0.24000,0,0,90.0*
21,1,0.58000,0.32000,0,0,90.0*
1,1,0.08000,0.12000,0.29000*
1,1,0.08000,0.12000,-0.29000*
1,1,0.08000,-0.12000,-0.29000*
1,1,0.08000,-0.12000,0.29000*
%
%ADD13ROUNDEDRECTD13*%
%ADD14R,0.45493X2.05283*%
G04:AMPARAMS|DCode=15|XSize=2.05283mm|YSize=0.45493mm|CornerRadius=0.22746mm|HoleSize=0mm|Usage=FLASHONLY|Rotation=90.000|XOffset=0mm|YOffset=0mm|HoleType=Round|Shape=RoundedRectangle|*
%AMROUNDEDRECTD15*
21,1,2.05283,0.00000,0,0,90.0*
21,1,1.59790,0.45493,0,0,90.0*
1,1,0.45493,0.00000,0.79895*
1,1,0.45493,0.00000,-0.79895*
1,1,0.45493,0.00000,-0.79895*
1,1,0.45493,0.00000,0.79895*
%
%ADD15ROUNDEDRECTD15*%
%ADD16R,0.53340X1.16840*%
%ADD17R,1.21920X0.76200*%
%ADD18R,1.00000X1.02000*%
%ADD19R,0.40000X1.90000*%
%ADD20R,1.00000X0.70000*%
%ADD21R,0.60000X0.70000*%
%ADD22R,1.20000X1.20000*%
%ADD23R,1.60000X3.00000*%
%ADD24R,0.70000X1.00000*%
%ADD25R,1.50000X0.44800*%
%ADD26R,2.50000X1.20000*%
%ADD27R,0.65000X1.05000*%
%ADD28O,0.60000X1.45000*%
%ADD29R,1.02000X1.00000*%
%ADD30R,1.00000X0.97000*%
%ADD31R,1.00000X0.70000*%
%ADD32R,2.84480X1.39700*%
%TA.AperFunction,ComponentPad*%
%ADD43C,1.10000*%
%ADD44R,1.10000X1.10000*%
%ADD45C,1.57500*%
%ADD46R,1.57500X1.57500*%
%ADD47C,1.65000*%
%ADD48R,1.65000X1.65000*%
%ADD49R,1.50800X1.50800*%
%ADD50C,1.50800*%
%ADD51C,1.45000*%
%ADD52R,1.45000X1.45000*%
%ADD53O,1.10000X1.80000*%
%ADD54O,1.10000X2.20000*%
%TA.AperFunction,ViaPad*%
%ADD55C,5.08000*%
%TA.AperFunction,ComponentPad*%
%ADD56R,1.57500X1.57500*%
%ADD57R,1.45000X1.45000*%
%ADD58R,1.65000X1.65000*%
D10*
X9495500Y6096000D02*
D03*
X9935500D02*
D03*
X13237500D02*
D03*
X12797500D02*
D03*
X7844500D02*
D03*
X8284500D02*
D03*
X11146500D02*
D03*
X11586500D02*
D03*
D11*
X9085480Y10107900D02*
D03*
X9135480D02*
D03*
X9185480D02*
D03*
X9235480D02*
D03*
X9285480D02*
D03*
X9335480D02*
D03*
X9385480D02*
D03*
X9435480D02*
D03*
X9485480D02*
D03*
X9535480D02*
D03*
X9585480D02*
D03*
X9635480D02*
D03*
X9685480D02*
D03*
X9735480D02*
D03*
X9785480D02*
D03*
X9835480D02*
D03*
Y8942900D02*
D03*
X9785480D02*
D03*
X9735480D02*
D03*
X9685480D02*
D03*
X9635480D02*
D03*
X9585480D02*
D03*
X9535480D02*
D03*
X9485480D02*
D03*
X9435480D02*
D03*
X9385480D02*
D03*
X9335480D02*
D03*
X9285480D02*
D03*
X9235480D02*
D03*
X9185480D02*
D03*
X9135480D02*
D03*
X9085480D02*
D03*
D12*
X10042980Y9900400D02*
D03*
Y9850400D02*
D03*
Y9800400D02*
D03*
Y9750400D02*
D03*
Y9700400D02*
D03*
Y9650400D02*
D03*
Y9600400D02*
D03*
Y9550400D02*
D03*
Y9500400D02*
D03*
Y9450400D02*
D03*
Y9400400D02*
D03*
Y9350400D02*
D03*
Y9300400D02*
D03*
Y9250400D02*
D03*
Y9200400D02*
D03*
Y9150400D02*
D03*
X8877980D02*
D03*
Y9200400D02*
D03*
Y9250400D02*
D03*
Y9300400D02*
D03*
Y9350400D02*
D03*
Y9400400D02*
D03*
Y9450400D02*
D03*
Y9500400D02*
D03*
Y9550400D02*
D03*
Y9600400D02*
D03*
Y9650400D02*
D03*
Y9700400D02*
D03*
Y9750400D02*
D03*
Y9800400D02*
D03*
Y9850400D02*
D03*
Y9900400D02*
D03*
D13*
X6564560Y8813960D02*
D03*
X6614560D02*
D03*
X6664560D02*
D03*
X6714560D02*
D03*
Y8960960D02*
D03*
X6664560D02*
D03*
X6614560D02*
D03*
X6564560D02*
D03*
D14*
X12240900Y8509386D02*
D03*
D15*
X12305900D02*
D03*
X12370900D02*
D03*
X12435900D02*
D03*
X12500900D02*
D03*
X12565900D02*
D03*
X12630900D02*
D03*
X12695900D02*
D03*
X12760900D02*
D03*
X12825900D02*
D03*
X12890900D02*
D03*
X12955901D02*
D03*
Y9194414D02*
D03*
X12890900D02*
D03*
X12825900D02*
D03*
X12760900D02*
D03*
X12695900D02*
D03*
X12630900D02*
D03*
X12565900D02*
D03*
X12500900D02*
D03*
X12435900D02*
D03*
X12370900D02*
D03*
X12305900D02*
D03*
X12240900D02*
D03*
D16*
X10380980Y5824220D02*
D03*
X10193020D02*
D03*
X10287000Y5605780D02*
D03*
X13682980Y5824220D02*
D03*
X13495020D02*
D03*
X13589000Y5605780D02*
D03*
X8636000D02*
D03*
X8542020Y5824220D02*
D03*
X8729980D02*
D03*
X11938000Y5605780D02*
D03*
X11844020Y5824220D02*
D03*
X12031980D02*
D03*
D17*
X9674860Y5651500D02*
D03*
X10010140D02*
D03*
X12976860D02*
D03*
X13312140D02*
D03*
X11661140D02*
D03*
X11325860D02*
D03*
X8359140D02*
D03*
X8023860D02*
D03*
D18*
X10362900Y5969000D02*
D03*
X10211100D02*
D03*
X10362900Y6159500D02*
D03*
X10211100D02*
D03*
X13664900Y5969000D02*
D03*
X13513100D02*
D03*
X13664900Y6159500D02*
D03*
X13513100D02*
D03*
X9539940Y8763000D02*
D03*
X9388140D02*
D03*
X8547100Y9677400D02*
D03*
X8698900D02*
D03*
X8547100Y9177020D02*
D03*
X8698900D02*
D03*
X8547400Y9509760D02*
D03*
X8699200D02*
D03*
X8547400Y9344660D02*
D03*
X8699200D02*
D03*
X8560100Y6159500D02*
D03*
X8711900D02*
D03*
X8560100Y5969000D02*
D03*
X8711900D02*
D03*
X11862100Y6159500D02*
D03*
X12013900D02*
D03*
X11862100Y5969000D02*
D03*
X12013900D02*
D03*
X8433100Y11049000D02*
D03*
X8584900D02*
D03*
X10216180Y9329420D02*
D03*
X10367980D02*
D03*
X10216180Y9006840D02*
D03*
X10367980D02*
D03*
X10216180Y9827260D02*
D03*
X10367980D02*
D03*
Y9166860D02*
D03*
X10216180D02*
D03*
X8877600Y11049000D02*
D03*
X9029400D02*
D03*
X6519880Y9103360D02*
D03*
X6368080D02*
D03*
X6385860Y10988040D02*
D03*
X6537660D02*
D03*
X6385860Y10797540D02*
D03*
X6537660D02*
D03*
D19*
X9316100Y10335260D02*
D03*
X9436100D02*
D03*
X9556100D02*
D03*
D20*
X7144840Y10292080D02*
D03*
D21*
X6974840D02*
D03*
Y10092080D02*
D03*
X7164840D02*
D03*
D22*
X6650320Y9601200D02*
D03*
X6370320D02*
D03*
D23*
X7157720Y7692680D02*
D03*
Y7252680D02*
D03*
X7762240D02*
D03*
Y7692680D02*
D03*
D24*
X6572500Y7793450D02*
D03*
X6667500D02*
D03*
X6762500D02*
D03*
Y7573550D02*
D03*
X6667500D02*
D03*
X6572500D02*
D03*
D25*
X6603500Y10160000D02*
D03*
Y10225000D02*
D03*
Y10095000D02*
D03*
Y10290000D02*
D03*
Y10030000D02*
D03*
D26*
X11260500Y7616000D02*
D03*
X10710500D02*
D03*
Y7116000D02*
D03*
X11260500D02*
D03*
Y7366000D02*
D03*
X10710500D02*
D03*
D27*
X9061000Y11637500D02*
D03*
Y11222500D02*
D03*
X8846000Y11637500D02*
D03*
Y11222500D02*
D03*
X8616500Y11637500D02*
D03*
Y11222500D02*
D03*
X8401500Y11637500D02*
D03*
Y11222500D02*
D03*
D28*
X9715500Y8173000D02*
D03*
X9842500D02*
D03*
X9969500D02*
D03*
X10096500D02*
D03*
X9715500Y8718000D02*
D03*
X9842500D02*
D03*
X9969500D02*
D03*
X10096500D02*
D03*
D29*
X11176000Y7925100D02*
D03*
Y8076900D02*
D03*
X10795000Y7925100D02*
D03*
Y8076900D02*
D03*
X9542780Y8150860D02*
D03*
Y8302660D02*
D03*
X10985500Y8076900D02*
D03*
Y7925100D02*
D03*
X13131799Y9070640D02*
D03*
Y9222440D02*
D03*
X12065000Y8445500D02*
D03*
Y8597300D02*
D03*
Y9222440D02*
D03*
Y9070640D02*
D03*
X10215880Y9987580D02*
D03*
Y10139380D02*
D03*
X9865360Y10289840D02*
D03*
Y10441640D02*
D03*
X9166860Y10289540D02*
D03*
Y10441340D02*
D03*
X9705340Y10289840D02*
D03*
Y10441640D02*
D03*
X8983980Y10439100D02*
D03*
Y10287300D02*
D03*
X10528300Y9507520D02*
D03*
Y9659320D02*
D03*
X9969500Y11300460D02*
D03*
Y11148660D02*
D03*
X10223500Y11295080D02*
D03*
Y11143280D02*
D03*
X9461500Y11505900D02*
D03*
Y11354100D02*
D03*
X9271000Y11505900D02*
D03*
Y11354100D02*
D03*
X6403340Y7650780D02*
D03*
Y7802580D02*
D03*
X6543040Y6904020D02*
D03*
Y7055820D02*
D03*
X7175500Y8140400D02*
D03*
Y7988600D02*
D03*
X6985000Y8140400D02*
D03*
Y7988600D02*
D03*
X6860540Y8808420D02*
D03*
Y8656620D02*
D03*
D30*
X10216040Y9664700D02*
D03*
X10363040D02*
D03*
X10216040Y9486900D02*
D03*
X10363040D02*
D03*
D31*
X6543040Y7221220D02*
D03*
Y7411220D02*
D03*
X6303040Y7316220D02*
D03*
D32*
X6667500Y8001000D02*
D03*
Y8341000D02*
D03*
D43*
X7366000Y11366500D02*
D03*
Y11493500D02*
D03*
X7493000Y11366500D02*
D03*
Y11493500D02*
D03*
X7620000Y11366500D02*
D03*
Y11493500D02*
D03*
X7747000Y11366500D02*
D03*
Y11493500D02*
D03*
X7874000Y11366500D02*
D03*
D44*
Y11493500D02*
D03*
D45*
X14108000Y8824500D02*
D03*
Y9650000D02*
D03*
Y7999000D02*
D03*
X13781500Y10679000D02*
D03*
X14031500Y11419000D02*
D03*
X11305000Y10679000D02*
D03*
X14848000Y9400000D02*
D03*
Y8574500D02*
D03*
Y7749000D02*
D03*
X14108000Y7173500D02*
D03*
X14848000Y6923500D02*
D03*
X11555000Y11419000D02*
D03*
X12130500Y10679000D02*
D03*
X12380500Y11419000D02*
D03*
X12956000Y10679000D02*
D03*
X13206000Y11419000D02*
D03*
D46*
X14108000Y8574500D02*
D03*
Y9400000D02*
D03*
Y7749000D02*
D03*
X14848000Y9650000D02*
D03*
Y8824500D02*
D03*
Y7999000D02*
D03*
X14108000Y6923500D02*
D03*
X14848000Y7173500D02*
D03*
D47*
X10287000Y5080000D02*
D03*
X13589000D02*
D03*
X8636000D02*
D03*
X11938000D02*
D03*
X6667500Y5778500D02*
D03*
D48*
X9779000Y5080000D02*
D03*
X13081000D02*
D03*
X8128000D02*
D03*
X11430000D02*
D03*
D49*
X10156000Y7313500D02*
D03*
D50*
X9906000D02*
D03*
X9656000D02*
D03*
D51*
X8130540Y9512300D02*
D03*
X6301740Y7015480D02*
D03*
X9715500Y11493500D02*
D03*
X9969500D02*
D03*
X10223500D02*
D03*
X10477500D02*
D03*
X6736080Y7366000D02*
D03*
X6662420Y8592820D02*
D03*
X7081520D02*
D03*
D52*
X8130540Y9258300D02*
D03*
D53*
X6628500Y10440000D02*
D03*
Y9880000D02*
D03*
D54*
X6413500Y10160000D02*
D03*
D55*
X14859000Y4826000D02*
D03*
Y11430000D02*
D03*
X6477000Y4826000D02*
D03*
Y11430000D02*
D03*
D56*
X14031500Y10679000D02*
D03*
X13781500Y11419000D02*
D03*
X11555000Y10679000D02*
D03*
X11305000Y11419000D02*
D03*
X12380500Y10679000D02*
D03*
X12130500Y11419000D02*
D03*
X13206000Y10679000D02*
D03*
X12956000Y11419000D02*
D03*
D57*
X10731500Y11493500D02*
D03*
D58*
X6667500Y6286500D02*
D03*
%TF.MD5,0aa13825550f1b0020873bfcb89bbaf7*%
M02*
