%TF.GenerationSoftware,Altium Limited,Altium Designer,24.2.2 (26)*%
G04 Layer_Physical_Order=2*
G04 Layer_Color=32768*
%FSLAX45Y45*%
%MOMM*%
%TF.SameCoordinates,CD070EA7-D628-40BE-AF17-708C1490C7C2*%
%TF.FilePolarity,Negative*%
%TF.FileFunction,Copper,L2,Inr,Plane*%
%TF.Part,Single*%
G01*
G75*
%TA.AperFunction,NonConductor*%
%ADD61C,1.01600*%
%TA.AperFunction,ComponentPad*%
%ADD62C,1.71600*%
%ADD63C,2.06600*%
%ADD64C,2.11600*%
%ADD65C,2.01600*%
%ADD66O,1.51600X2.21600*%
%ADD67O,1.51600X2.61600*%
%TA.AperFunction,ViaPad*%
%ADD68C,4.41600*%
%ADD69C,1.31600*%
%ADD70C,1.47320*%
D61*
X5969000Y4572000D02*
G03*
X6223000Y4318000I254000J0D01*
G01*
X15113000D02*
G03*
X15367000Y4572000I0J254000D01*
G01*
Y11684000D02*
G03*
X15113000Y11938000I-254000J0D01*
G01*
X6223000D02*
G03*
X5969000Y11684000I0J-254000D01*
G01*
X6223000Y4318000D02*
X15113000D01*
X15367000Y4572000D02*
Y11684000D01*
X6223000Y11938000D02*
X15113000D01*
X5969000Y4572000D02*
Y11684000D01*
D62*
X7366000Y11366500D02*
D03*
X7493000D02*
D03*
Y11493500D02*
D03*
X7620000Y11366500D02*
D03*
X7747000D02*
D03*
X7874000D02*
D03*
Y11493500D02*
D03*
D63*
X14108000Y8824500D02*
D03*
Y8574500D02*
D03*
Y9650000D02*
D03*
Y9400000D02*
D03*
Y7999000D02*
D03*
Y7749000D02*
D03*
X14031500Y10679000D02*
D03*
X13781500D02*
D03*
Y11419000D02*
D03*
X14031500D02*
D03*
X11555000Y10679000D02*
D03*
X11305000D02*
D03*
X14848000Y9650000D02*
D03*
Y9400000D02*
D03*
Y8824500D02*
D03*
Y8574500D02*
D03*
Y7999000D02*
D03*
Y7749000D02*
D03*
X14108000Y6923500D02*
D03*
Y7173500D02*
D03*
X14848000D02*
D03*
Y6923500D02*
D03*
X11305000Y11419000D02*
D03*
X11555000D02*
D03*
X12380500Y10679000D02*
D03*
X12130500D02*
D03*
Y11419000D02*
D03*
X12380500D02*
D03*
X13206000Y10679000D02*
D03*
X12956000D02*
D03*
Y11419000D02*
D03*
X13206000D02*
D03*
D64*
X10287000Y5080000D02*
D03*
X9779000D02*
D03*
X13589000D02*
D03*
X13081000D02*
D03*
X8130540Y9258300D02*
D03*
X6301740Y7015480D02*
D03*
X8128000Y5080000D02*
D03*
X8636000D02*
D03*
X11430000D02*
D03*
X11938000D02*
D03*
X9715500Y11493500D02*
D03*
X9969500D02*
D03*
X10223500D02*
D03*
X10731500D02*
D03*
X6736080Y7366000D02*
D03*
X6662420Y8592820D02*
D03*
X6667500Y5778500D02*
D03*
X7081520Y8592820D02*
D03*
D65*
X10156000Y7313500D02*
D03*
X9656000D02*
D03*
D66*
X6628500Y10440000D02*
D03*
Y9880000D02*
D03*
D67*
X6413500Y10160000D02*
D03*
D68*
X14859000Y4826000D02*
D03*
Y11430000D02*
D03*
X6477000Y4826000D02*
D03*
Y11430000D02*
D03*
D69*
X6906260Y8224520D02*
D03*
X12893040Y8656320D02*
D03*
X9784080Y9047480D02*
D03*
X9875520Y8960720D02*
D03*
X11983720Y9220200D02*
D03*
X8663940Y11046460D02*
D03*
X9108440D02*
D03*
X9273540Y11272520D02*
D03*
X8879840Y10967720D02*
D03*
X9474200Y9687560D02*
D03*
X9570720Y9685020D02*
D03*
X9664700D02*
D03*
X9438640Y9103360D02*
D03*
X10223500Y11064240D02*
D03*
X8996680Y9822180D02*
D03*
X8991600Y9502140D02*
D03*
X7752080Y11109960D02*
D03*
X7884160D02*
D03*
X9029700Y9169400D02*
D03*
X9075420Y10289540D02*
D03*
X9946640Y9184640D02*
D03*
Y9268460D02*
D03*
X9085580Y9034780D02*
D03*
X8874760Y9105900D02*
D03*
X12818558Y9061002D02*
D03*
X12885420Y9060180D02*
D03*
X12824460Y8641080D02*
D03*
X9118600Y9347200D02*
D03*
X9842500Y8815870D02*
D03*
X10447020Y9006840D02*
D03*
X9029700Y9252540D02*
D03*
X12956540Y9060180D02*
D03*
X9029700Y9348260D02*
D03*
X9969500Y11066780D02*
D03*
X6616700Y10797540D02*
D03*
X10444480Y9484360D02*
D03*
X9461500Y8150860D02*
D03*
X9385300Y8676640D02*
D03*
X8468360Y9177020D02*
D03*
Y9344660D02*
D03*
X6504940Y7569200D02*
D03*
D70*
X6797040Y9601200D02*
D03*
X6438900Y8801100D02*
D03*
Y8989060D02*
D03*
Y8895080D02*
D03*
%TF.MD5,1965df41afd91977ff6aa99082f13541*%
M02*
