%TF.GenerationSoftware,Altium Limited,Altium Designer,24.2.2 (26)*%
G04 Layer_Color=32896*
%FSLAX45Y45*%
%MOMM*%
%TF.SameCoordinates,CD070EA7-D628-40BE-AF17-708C1490C7C2*%
%TF.FilePolarity,Positive*%
%TF.FileFunction,Legend,Bot*%
%TF.Part,Single*%
G01*
G75*
%TA.AperFunction,NonConductor*%
%ADD79C,0.20320*%
D79*
X9862820Y6513396D02*
Y6614963D01*
X9812037D01*
X9795109Y6598035D01*
Y6564179D01*
X9812037Y6547251D01*
X9862820D01*
X9744325Y6513396D02*
X9710469D01*
X9693541Y6530323D01*
Y6564179D01*
X9710469Y6581107D01*
X9744325D01*
X9761253Y6564179D01*
Y6530323D01*
X9744325Y6513396D01*
X9659686Y6581107D02*
Y6530323D01*
X9642758Y6513396D01*
X9625830Y6530323D01*
X9608902Y6513396D01*
X9591974Y6530323D01*
Y6581107D01*
X9507335Y6513396D02*
X9541190D01*
X9558118Y6530323D01*
Y6564179D01*
X9541190Y6581107D01*
X9507335D01*
X9490407Y6564179D01*
Y6547251D01*
X9558118D01*
X9456551Y6581107D02*
Y6513396D01*
Y6547251D01*
X9439623Y6564179D01*
X9422695Y6581107D01*
X9405768D01*
X9304200Y6513396D02*
X9338056D01*
X9354984Y6530323D01*
Y6564179D01*
X9338056Y6581107D01*
X9304200D01*
X9287273Y6564179D01*
Y6547251D01*
X9354984D01*
X9185705Y6614963D02*
Y6513396D01*
X9236489D01*
X9253417Y6530323D01*
Y6564179D01*
X9236489Y6581107D01*
X9185705D01*
X9050282Y6614963D02*
Y6513396D01*
X8999499D01*
X8982571Y6530323D01*
Y6547251D01*
Y6564179D01*
X8999499Y6581107D01*
X9050282D01*
X8948715D02*
Y6530323D01*
X8931787Y6513396D01*
X8881004D01*
Y6496468D01*
X8897931Y6479540D01*
X8914859D01*
X8881004Y6513396D02*
Y6581107D01*
X8677869Y6598035D02*
X8694797Y6614963D01*
X8728653D01*
X8745580Y6598035D01*
Y6530323D01*
X8728653Y6513396D01*
X8694797D01*
X8677869Y6530323D01*
X8644013Y6614963D02*
Y6513396D01*
Y6564179D01*
X8627085Y6581107D01*
X8593230D01*
X8576302Y6564179D01*
Y6513396D01*
X8525518D02*
X8491662D01*
X8474735Y6530323D01*
Y6564179D01*
X8491662Y6581107D01*
X8525518D01*
X8542446Y6564179D01*
Y6530323D01*
X8525518Y6513396D01*
X8440879Y6614963D02*
Y6513396D01*
X8390095D01*
X8373167Y6530323D01*
Y6547251D01*
Y6564179D01*
X8390095Y6581107D01*
X8440879D01*
X8322384D02*
X8288528D01*
X8271600Y6564179D01*
Y6513396D01*
X8322384D01*
X8339311Y6530323D01*
X8322384Y6547251D01*
X8271600D01*
X8237744Y6513396D02*
Y6581107D01*
X8186961D01*
X8170033Y6564179D01*
Y6513396D01*
X8136177D02*
X8102321D01*
X8119249D01*
Y6581107D01*
X8136177D01*
X10198100Y6835943D02*
Y6734376D01*
X10147317D01*
X10130389Y6751303D01*
Y6819015D01*
X10147317Y6835943D01*
X10198100D01*
X10045749Y6734376D02*
X10079605D01*
X10096533Y6751303D01*
Y6785159D01*
X10079605Y6802087D01*
X10045749D01*
X10028821Y6785159D01*
Y6768231D01*
X10096533D01*
X9994966Y6734376D02*
X9944182D01*
X9927254Y6751303D01*
X9944182Y6768231D01*
X9978038D01*
X9994966Y6785159D01*
X9978038Y6802087D01*
X9927254D01*
X9893398Y6734376D02*
X9859543D01*
X9876470D01*
Y6802087D01*
X9893398D01*
X9774903Y6700520D02*
X9757975D01*
X9741048Y6717448D01*
Y6802087D01*
X9791831D01*
X9808759Y6785159D01*
Y6751303D01*
X9791831Y6734376D01*
X9741048D01*
X9707192D02*
Y6802087D01*
X9656408D01*
X9639480Y6785159D01*
Y6734376D01*
X9554841D02*
X9588697D01*
X9605624Y6751303D01*
Y6785159D01*
X9588697Y6802087D01*
X9554841D01*
X9537913Y6785159D01*
Y6768231D01*
X9605624D01*
X9436346Y6835943D02*
Y6734376D01*
X9487129D01*
X9504057Y6751303D01*
Y6785159D01*
X9487129Y6802087D01*
X9436346D01*
X9300923Y6835943D02*
Y6734376D01*
X9250139D01*
X9233211Y6751303D01*
Y6768231D01*
Y6785159D01*
X9250139Y6802087D01*
X9300923D01*
X9199355D02*
Y6751303D01*
X9182428Y6734376D01*
X9131644D01*
Y6717448D01*
X9148572Y6700520D01*
X9165500D01*
X9131644Y6734376D02*
Y6802087D01*
X8928510Y6835943D02*
X8996221D01*
Y6734376D01*
X8928510D01*
X8996221Y6785159D02*
X8962365D01*
X8894654Y6700520D02*
Y6802087D01*
X8843870D01*
X8826942Y6785159D01*
Y6751303D01*
X8843870Y6734376D01*
X8894654D01*
X8793087Y6835943D02*
Y6734376D01*
Y6785159D01*
X8776159Y6802087D01*
X8742303D01*
X8725375Y6785159D01*
Y6734376D01*
X8691519Y6802087D02*
Y6734376D01*
Y6768231D01*
X8674591Y6785159D01*
X8657664Y6802087D01*
X8640736D01*
X8539169Y6734376D02*
X8573024D01*
X8589952Y6751303D01*
Y6785159D01*
X8573024Y6802087D01*
X8539169D01*
X8522241Y6785159D01*
Y6768231D01*
X8589952D01*
X8488385Y6734376D02*
Y6802087D01*
X8437601D01*
X8420674Y6785159D01*
Y6734376D01*
X8285250D02*
Y6835943D01*
X8251395Y6802087D01*
X8217539Y6835943D01*
Y6734376D01*
X8166755Y6802087D02*
X8132900D01*
X8115972Y6785159D01*
Y6734376D01*
X8166755D01*
X8183683Y6751303D01*
X8166755Y6768231D01*
X8115972D01*
X8082116Y6734376D02*
Y6802087D01*
X8031332D01*
X8014405Y6785159D01*
Y6734376D01*
X7980549D02*
Y6802087D01*
X7929765D01*
X7912837Y6785159D01*
Y6734376D01*
X7878981D02*
X7845126D01*
X7862054D01*
Y6802087D01*
X7878981D01*
X7794342Y6734376D02*
Y6802087D01*
X7743559D01*
X7726631Y6785159D01*
Y6734376D01*
X7658919Y6700520D02*
X7641991D01*
X7625063Y6717448D01*
Y6802087D01*
X7675847D01*
X7692775Y6785159D01*
Y6751303D01*
X7675847Y6734376D01*
X7625063D01*
%TF.MD5,afc02bb3a372a1fe78e3878852497570*%
M02*
