%TF.GenerationSoftware,Altium Limited,Altium Designer,24.2.2 (26)*%
G04 Layer_Physical_Order=4*
G04 Layer_Color=16711680*
%FSLAX45Y45*%
%MOMM*%
%TF.SameCoordinates,A4C595DC-B1F2-44DB-B2EC-003EFFDD1F8B*%
%TF.FilePolarity,Positive*%
%TF.FileFunction,Copper,L4,Bot,Signal*%
%TF.Part,Single*%
G01*
G75*
%TA.AperFunction,Conductor*%
%ADD35C,0.20320*%
%ADD36C,0.25400*%
%TA.AperFunction,ComponentPad*%
%ADD43C,1.10000*%
%ADD44R,1.10000X1.10000*%
%ADD45C,1.57500*%
%ADD46R,1.57500X1.57500*%
%ADD47C,1.65000*%
%ADD48R,1.65000X1.65000*%
%ADD49R,1.50800X1.50800*%
%ADD50C,1.50800*%
%ADD51C,1.45000*%
%ADD52R,1.45000X1.45000*%
%ADD53O,1.10000X1.80000*%
%ADD54O,1.10000X2.20000*%
%TA.AperFunction,ViaPad*%
%ADD55C,5.08000*%
%TA.AperFunction,ComponentPad*%
%ADD56R,1.57500X1.57500*%
%ADD57R,1.45000X1.45000*%
%ADD58R,1.65000X1.65000*%
%TA.AperFunction,ViaPad*%
%ADD59C,0.50000*%
%ADD60C,0.76200*%
D35*
X7530865Y11360548D02*
G03*
X7530864Y11360549I-14370J-14368D01*
G01*
X10096500Y11259820D02*
X10223500Y11386820D01*
Y11493500D01*
X9961480Y8960720D02*
X10096500Y9095740D01*
Y11259820D01*
X9954260Y9047480D02*
X10045700Y9138920D01*
X9784080Y9047480D02*
X9954260D01*
X9875520Y8960720D02*
X9961480D01*
X9273540Y11226800D02*
Y11272520D01*
X9570720Y9685020D02*
Y10929620D01*
X9273540Y11226800D02*
X9570720Y10929620D01*
X8879840Y10967720D02*
X9456420D01*
X9519920Y9733280D02*
Y10904220D01*
X9456420Y10967720D02*
X9519920Y10904220D01*
X9715500Y11384280D02*
Y11493500D01*
X9621520Y9736231D02*
Y11290300D01*
X9715500Y11384280D01*
X9621520Y9736231D02*
X9664700Y9693051D01*
X9474200Y9687560D02*
X9519920Y9733280D01*
X9664700Y9685020D02*
Y9693051D01*
X9438640Y9098280D02*
X9776460Y8760460D01*
X9438640Y9098280D02*
Y9103360D01*
X9969500Y11338560D02*
X10045700Y11262360D01*
X9969500Y11338560D02*
Y11493500D01*
X10045700Y9138920D02*
Y11262360D01*
X8994140Y9504680D02*
Y9819640D01*
X8996680Y9822180D01*
X8991600Y9502140D02*
X8994140Y9504680D01*
X8874760Y9105900D02*
Y9987280D01*
X7752080Y11109960D02*
X8874760Y9987280D01*
X7884160Y11043920D02*
Y11109960D01*
Y11043920D02*
X8925560Y10002520D01*
Y9194800D02*
Y10002520D01*
X7940040Y11059160D02*
Y11235217D01*
X9815268Y9183932D02*
X9946422D01*
X7940040Y11059160D02*
X9815268Y9183932D01*
X7985760Y11082020D02*
Y11544300D01*
X9799320Y9268460D02*
X9946640D01*
X7985760Y11082020D02*
X9799320Y9268460D01*
X8925560Y9194800D02*
X9085580Y9034780D01*
X7524912Y11366500D02*
X7530864Y11360549D01*
X7493000Y11366500D02*
X7524912D01*
X7530865Y11360548D02*
X7535501Y11355912D01*
X7523480Y11247120D02*
X7928137D01*
X7940040Y11235217D01*
X7493000Y11277600D02*
X7523480Y11247120D01*
X7922260Y11607800D02*
X7985760Y11544300D01*
X7523480Y11607800D02*
X7922260D01*
X9120244Y9169400D02*
X9673964Y8615680D01*
X9029700Y9169400D02*
X9120244D01*
X9096420Y9252540D02*
X9697720Y8651240D01*
X9029700Y9252540D02*
X9096420D01*
X7493000Y11277600D02*
Y11366500D01*
Y11493500D02*
Y11577320D01*
X7523480Y11607800D01*
X12324080Y8760460D02*
X12494260Y8930640D01*
X9776460Y8760460D02*
X12324080D01*
X12494260Y8930640D02*
X12688196D01*
X12524740Y8846820D02*
X12743180D01*
X12364720Y8686800D02*
X12524740Y8846820D01*
X9723120Y8686800D02*
X12364720D01*
X12415520Y8615680D02*
X12440920Y8641080D01*
X9673964Y8615680D02*
X12415520D01*
X12440920Y8641080D02*
X12824460D01*
X12385709Y8651240D02*
X12423409Y8688940D01*
X9697720Y8651240D02*
X12385709D01*
X9115000Y9294920D02*
X9723120Y8686800D01*
X12344400Y8722360D02*
X12506960Y8884920D01*
X9118600Y9347200D02*
X9743440Y8722360D01*
X12344400D01*
X12688196Y8930640D02*
X12818558Y9061002D01*
X12506960Y8884920D02*
X12710160D01*
X12885420Y9060180D01*
X12743180Y8846820D02*
X12956540Y9060180D01*
X12423409Y8688940D02*
X12844284D01*
X12890500Y8642724D01*
Y8636000D02*
Y8642724D01*
X9083040Y9294920D02*
X9115000D01*
X9029700Y9348260D02*
X9083040Y9294920D01*
D36*
X6504940Y7569200D02*
X6505108Y7569368D01*
Y7607468D02*
X6878320Y7980680D01*
Y8237220D01*
X6505108Y7569368D02*
Y7607468D01*
D43*
X7366000Y11366500D02*
D03*
Y11493500D02*
D03*
X7493000Y11366500D02*
D03*
Y11493500D02*
D03*
X7620000Y11366500D02*
D03*
Y11493500D02*
D03*
X7747000Y11366500D02*
D03*
Y11493500D02*
D03*
X7874000Y11366500D02*
D03*
D44*
Y11493500D02*
D03*
D45*
X14108000Y8824500D02*
D03*
Y9650000D02*
D03*
Y7999000D02*
D03*
X13781500Y10679000D02*
D03*
X14031500Y11419000D02*
D03*
X11305000Y10679000D02*
D03*
X14848000Y9400000D02*
D03*
Y8574500D02*
D03*
Y7749000D02*
D03*
X14108000Y7173500D02*
D03*
X14848000Y6923500D02*
D03*
X11555000Y11419000D02*
D03*
X12130500Y10679000D02*
D03*
X12380500Y11419000D02*
D03*
X12956000Y10679000D02*
D03*
X13206000Y11419000D02*
D03*
D46*
X14108000Y8574500D02*
D03*
Y9400000D02*
D03*
Y7749000D02*
D03*
X14848000Y9650000D02*
D03*
Y8824500D02*
D03*
Y7999000D02*
D03*
X14108000Y6923500D02*
D03*
X14848000Y7173500D02*
D03*
D47*
X10287000Y5080000D02*
D03*
X13589000D02*
D03*
X8636000D02*
D03*
X11938000D02*
D03*
X6667500Y5778500D02*
D03*
D48*
X9779000Y5080000D02*
D03*
X13081000D02*
D03*
X8128000D02*
D03*
X11430000D02*
D03*
D49*
X10156000Y7313500D02*
D03*
D50*
X9906000D02*
D03*
X9656000D02*
D03*
D51*
X8130540Y9512300D02*
D03*
X6301740Y7015480D02*
D03*
X9715500Y11493500D02*
D03*
X9969500D02*
D03*
X10223500D02*
D03*
X10477500D02*
D03*
X6736080Y7366000D02*
D03*
X6662420Y8592820D02*
D03*
X7081520D02*
D03*
D52*
X8130540Y9258300D02*
D03*
D53*
X6628500Y10440000D02*
D03*
Y9880000D02*
D03*
D54*
X6413500Y10160000D02*
D03*
D55*
X14859000Y4826000D02*
D03*
Y11430000D02*
D03*
X6477000Y4826000D02*
D03*
Y11430000D02*
D03*
D56*
X14031500Y10679000D02*
D03*
X13781500Y11419000D02*
D03*
X11555000Y10679000D02*
D03*
X11305000Y11419000D02*
D03*
X12380500Y10679000D02*
D03*
X12130500Y11419000D02*
D03*
X13206000Y10679000D02*
D03*
X12956000Y11419000D02*
D03*
D57*
X10731500Y11493500D02*
D03*
D58*
X6667500Y6286500D02*
D03*
D59*
X8794079Y9951121D02*
D03*
X9784080Y9047480D02*
D03*
X9545320Y8676640D02*
D03*
X9875520Y8960720D02*
D03*
X12065000Y8366760D02*
D03*
X10213340Y10218420D02*
D03*
X12956540Y8379460D02*
D03*
X11983720Y9070340D02*
D03*
Y9220200D02*
D03*
X9060180Y11437620D02*
D03*
X8615680Y11427460D02*
D03*
X8663940Y11046460D02*
D03*
X9108440D02*
D03*
X9273540Y11272520D02*
D03*
X9458960Y11269980D02*
D03*
X8879840Y10967720D02*
D03*
X9474200Y9687560D02*
D03*
X9570720Y9685020D02*
D03*
X9664700D02*
D03*
X9438640Y9103360D02*
D03*
X10223500Y11064240D02*
D03*
X8996680Y9822180D02*
D03*
X8991600Y9502140D02*
D03*
X7752080Y11109960D02*
D03*
X7884160D02*
D03*
X8489502Y9698542D02*
D03*
X9029700Y9169400D02*
D03*
X9075420Y10289540D02*
D03*
X9946640Y9184640D02*
D03*
Y9268460D02*
D03*
X9085580Y9034780D02*
D03*
X8874760Y9105900D02*
D03*
X13131799Y8989060D02*
D03*
X12818558Y9061002D02*
D03*
X12885420Y9060180D02*
D03*
X12824460Y8641080D02*
D03*
X12890500Y8636000D02*
D03*
X9118600Y9347200D02*
D03*
X9842500Y8815870D02*
D03*
X9969500D02*
D03*
X10447020Y9006840D02*
D03*
X9029700Y9252540D02*
D03*
X12956540Y9060180D02*
D03*
X9029700Y9348260D02*
D03*
X9969500Y11066780D02*
D03*
X10163410Y9573260D02*
D03*
X6616700Y10797540D02*
D03*
Y10985500D02*
D03*
X10985500Y7846060D02*
D03*
X10447020Y9166860D02*
D03*
Y9827260D02*
D03*
Y9329420D02*
D03*
X10444480Y9484360D02*
D03*
X9436100Y10462260D02*
D03*
X9865360Y10520680D02*
D03*
X9705340D02*
D03*
X9166860D02*
D03*
X9461500Y8303260D02*
D03*
Y8150860D02*
D03*
X9385300Y8676640D02*
D03*
X8468360Y9509760D02*
D03*
Y9177020D02*
D03*
Y9344660D02*
D03*
X6537960Y8745220D02*
D03*
X6878320Y8237220D02*
D03*
X6637020Y6903720D02*
D03*
X6504940Y7569200D02*
D03*
D60*
X13373100Y5943600D02*
D03*
Y5829300D02*
D03*
X13233400Y5892800D02*
D03*
X13131799Y5956300D02*
D03*
X11722100Y5943600D02*
D03*
Y5829300D02*
D03*
X11582400Y5892800D02*
D03*
X11480800Y5956300D02*
D03*
X10071100Y5943600D02*
D03*
Y5829300D02*
D03*
X9931400Y5892800D02*
D03*
X9829800Y5956300D02*
D03*
X8178800D02*
D03*
X8280400Y5892800D02*
D03*
X8420100Y5829300D02*
D03*
Y5943600D02*
D03*
X7145020Y10380980D02*
D03*
X6751430Y10027810D02*
D03*
X6797040Y9601200D02*
D03*
X6949440Y7899400D02*
D03*
X7282180Y7904480D02*
D03*
X7007860Y7813040D02*
D03*
X6891020Y7815580D02*
D03*
X6438900Y8801100D02*
D03*
Y8989060D02*
D03*
Y8895080D02*
D03*
%TF.MD5,2e75b2c9c8c387fcbd17fccb9f10da94*%
M02*
