%TF.GenerationSoftware,Altium Limited,Altium Designer,24.2.2 (26)*%
G04 Layer_Physical_Order=3*
G04 Layer_Color=128*
%FSLAX45Y45*%
%MOMM*%
%TF.SameCoordinates,A4C595DC-B1F2-44DB-B2EC-003EFFDD1F8B*%
%TF.FilePolarity,Negative*%
%TF.FileFunction,Copper,L3,Inr,Plane*%
%TF.Part,Single*%
G01*
G75*
%TA.AperFunction,NonConductor*%
%ADD61C,1.01600*%
%TA.AperFunction,ComponentPad*%
%ADD62C,1.71600*%
%ADD63C,2.06600*%
%ADD64C,2.11600*%
%ADD65C,2.01600*%
%ADD66O,1.51600X2.21600*%
%ADD67O,1.51600X2.61600*%
%TA.AperFunction,ViaPad*%
%ADD68C,4.41600*%
%ADD69C,1.31600*%
%ADD70C,1.47320*%
D61*
X5969000Y4572000D02*
G03*
X6223000Y4318000I254000J0D01*
G01*
X15113000D02*
G03*
X15367000Y4572000I0J254000D01*
G01*
Y11684000D02*
G03*
X15113000Y11938000I-254000J0D01*
G01*
X6223000D02*
G03*
X5969000Y11684000I0J-254000D01*
G01*
X6223000Y4318000D02*
X15113000D01*
X15367000Y4572000D02*
Y11684000D01*
X6223000Y11938000D02*
X15113000D01*
X5969000Y4572000D02*
Y11684000D01*
D62*
X7366000Y11366500D02*
D03*
Y11493500D02*
D03*
X7493000Y11366500D02*
D03*
Y11493500D02*
D03*
X7620000Y11366500D02*
D03*
Y11493500D02*
D03*
X7747000Y11366500D02*
D03*
Y11493500D02*
D03*
X7874000Y11366500D02*
D03*
D63*
X14108000Y8574500D02*
D03*
Y9400000D02*
D03*
Y7749000D02*
D03*
X14031500Y10679000D02*
D03*
X13781500Y11419000D02*
D03*
X11555000Y10679000D02*
D03*
X14848000Y9650000D02*
D03*
Y8824500D02*
D03*
Y7999000D02*
D03*
X14108000Y6923500D02*
D03*
X14848000Y7173500D02*
D03*
X11305000Y11419000D02*
D03*
X12380500Y10679000D02*
D03*
X12130500Y11419000D02*
D03*
X13206000Y10679000D02*
D03*
X12956000Y11419000D02*
D03*
D64*
X10287000Y5080000D02*
D03*
X9779000D02*
D03*
X13589000D02*
D03*
X13081000D02*
D03*
X8130540Y9512300D02*
D03*
Y9258300D02*
D03*
X6301740Y7015480D02*
D03*
X8128000Y5080000D02*
D03*
X8636000D02*
D03*
X11430000D02*
D03*
X11938000D02*
D03*
X9715500Y11493500D02*
D03*
X9969500D02*
D03*
X10223500D02*
D03*
X10477500D02*
D03*
X6736080Y7366000D02*
D03*
X6662420Y8592820D02*
D03*
X6667500Y6286500D02*
D03*
Y5778500D02*
D03*
D65*
X10156000Y7313500D02*
D03*
X9906000D02*
D03*
X9656000D02*
D03*
D66*
X6628500Y10440000D02*
D03*
Y9880000D02*
D03*
D67*
X6413500Y10160000D02*
D03*
D68*
X14859000Y4826000D02*
D03*
Y11430000D02*
D03*
X6477000Y4826000D02*
D03*
Y11430000D02*
D03*
D69*
X8794079Y9951121D02*
D03*
X9784080Y9047480D02*
D03*
X9545320Y8676640D02*
D03*
X9875520Y8960720D02*
D03*
X12065000Y8366760D02*
D03*
X10213340Y10218420D02*
D03*
X12956540Y8379460D02*
D03*
X11983720Y9070340D02*
D03*
X9060180Y11437620D02*
D03*
X8615680Y11427460D02*
D03*
X9273540Y11272520D02*
D03*
X9458960Y11269980D02*
D03*
X8879840Y10967720D02*
D03*
X9474200Y9687560D02*
D03*
X9570720Y9685020D02*
D03*
X9664700D02*
D03*
X9438640Y9103360D02*
D03*
X8996680Y9822180D02*
D03*
X8991600Y9502140D02*
D03*
X7752080Y11109960D02*
D03*
X7884160D02*
D03*
X8489502Y9698542D02*
D03*
X9029700Y9169400D02*
D03*
X9946640Y9184640D02*
D03*
Y9268460D02*
D03*
X9085580Y9034780D02*
D03*
X8874760Y9105900D02*
D03*
X13131799Y8989060D02*
D03*
X12818558Y9061002D02*
D03*
X12885420Y9060180D02*
D03*
X12824460Y8641080D02*
D03*
X12890500Y8636000D02*
D03*
X9118600Y9347200D02*
D03*
X9969500Y8815870D02*
D03*
X9029700Y9252540D02*
D03*
X12956540Y9060180D02*
D03*
X9029700Y9348260D02*
D03*
X10163410Y9573260D02*
D03*
X6616700Y10985500D02*
D03*
X10985500Y7846060D02*
D03*
X10447020Y9166860D02*
D03*
Y9827260D02*
D03*
Y9329420D02*
D03*
X9436100Y10462260D02*
D03*
X9865360Y10520680D02*
D03*
X9705340D02*
D03*
X9166860D02*
D03*
X9461500Y8303260D02*
D03*
X8468360Y9509760D02*
D03*
X6537960Y8745220D02*
D03*
X6878320Y8237220D02*
D03*
X6637020Y6903720D02*
D03*
X6504940Y7569200D02*
D03*
D70*
X13373100Y5943600D02*
D03*
Y5829300D02*
D03*
X13233400Y5892800D02*
D03*
X13131799Y5956300D02*
D03*
X11722100Y5943600D02*
D03*
Y5829300D02*
D03*
X11582400Y5892800D02*
D03*
X11480800Y5956300D02*
D03*
X10071100Y5943600D02*
D03*
Y5829300D02*
D03*
X9931400Y5892800D02*
D03*
X9829800Y5956300D02*
D03*
X8178800D02*
D03*
X8280400Y5892800D02*
D03*
X8420100Y5829300D02*
D03*
Y5943600D02*
D03*
X7145020Y10380980D02*
D03*
X6751430Y10027810D02*
D03*
X6949440Y7899400D02*
D03*
X7282180Y7904480D02*
D03*
X7007860Y7813040D02*
D03*
X6891020Y7815580D02*
D03*
%TF.MD5,a398e9a524191b1b36fe4361bfa1b4bf*%
M02*
